<svg width="44" height="44" viewBox="0 0 44 44" fill="none" xmlns="http://www.w3.org/2000/svg">
<path d="M38.4062 34.1094H28.25C27.8188 34.1094 27.4688 33.7602 27.4688 33.3281C27.4688 32.8961 27.8188 32.5469 28.25 32.5469H38.4062C38.8375 32.5469 39.1875 32.8961 39.1875 33.3281C39.1875 33.7602 38.8375 34.1094 38.4062 34.1094Z" fill="black"/>
<path d="M33.3281 39.1875C32.8969 39.1875 32.5469 38.8383 32.5469 38.4062V28.25C32.5469 27.818 32.8969 27.4688 33.3281 27.4688C33.7594 27.4688 34.1094 27.818 34.1094 28.25V38.4062C34.1094 38.8383 33.7594 39.1875 33.3281 39.1875Z" fill="black"/>
<path d="M27.4688 43.0938C25.3148 43.0938 23.5625 41.3406 23.5625 39.1875C23.5625 38.7555 23.9125 38.4062 24.3438 38.4062C24.775 38.4062 25.125 38.7555 25.125 39.1875C25.125 40.4797 26.1766 41.5312 27.4688 41.5312C27.9 41.5312 28.25 41.8805 28.25 42.3125C28.25 42.7445 27.9 43.0938 27.4688 43.0938Z" fill="black"/>
<path d="M39.1875 43.0938H27.4688C27.0375 43.0938 26.6875 42.7445 26.6875 42.3125C26.6875 41.8805 27.0375 41.5312 27.4688 41.5312H39.1875C39.6187 41.5312 39.9688 41.8805 39.9688 42.3125C39.9688 42.7445 39.6187 43.0938 39.1875 43.0938Z" fill="black"/>
<path d="M24.3438 39.9688C23.9125 39.9688 23.5625 39.6195 23.5625 39.1875V27.4688C23.5625 27.0367 23.9125 26.6875 24.3438 26.6875C24.775 26.6875 25.125 27.0367 25.125 27.4688V39.1875C25.125 39.6195 24.775 39.9688 24.3438 39.9688Z" fill="black"/>
<path d="M39.1875 43.0938C38.7563 43.0938 38.4062 42.7445 38.4062 42.3125C38.4062 41.8805 38.7563 41.5312 39.1875 41.5312C40.4797 41.5312 41.5312 40.4797 41.5312 39.1875C41.5312 38.7555 41.8812 38.4062 42.3125 38.4062C42.7438 38.4062 43.0938 38.7555 43.0938 39.1875C43.0938 41.3406 41.3414 43.0938 39.1875 43.0938Z" fill="black"/>
<path d="M42.3125 39.9688C41.8813 39.9688 41.5312 39.6195 41.5312 39.1875V27.4688C41.5312 27.0367 41.8813 26.6875 42.3125 26.6875C42.7437 26.6875 43.0938 27.0367 43.0938 27.4688V39.1875C43.0938 39.6195 42.7437 39.9688 42.3125 39.9688Z" fill="black"/>
<path d="M42.3125 28.25C41.8812 28.25 41.5312 27.9008 41.5312 27.4688C41.5312 26.1766 40.4797 25.125 39.1875 25.125C38.7563 25.125 38.4062 24.7758 38.4062 24.3438C38.4062 23.9117 38.7563 23.5625 39.1875 23.5625C41.3414 23.5625 43.0938 25.3141 43.0938 27.4688C43.0938 27.9008 42.7438 28.25 42.3125 28.25Z" fill="black"/>
<path d="M39.1875 25.125H27.4688C27.0375 25.125 26.6875 24.7758 26.6875 24.3438C26.6875 23.9117 27.0375 23.5625 27.4688 23.5625H39.1875C39.6187 23.5625 39.9688 23.9117 39.9688 24.3438C39.9688 24.7758 39.6187 25.125 39.1875 25.125Z" fill="black"/>
<path d="M24.3438 28.25C23.9125 28.25 23.5625 27.9008 23.5625 27.4688C23.5625 25.3141 25.3148 23.5625 27.4688 23.5625C27.9 23.5625 28.25 23.9117 28.25 24.3438C28.25 24.7758 27.9 25.125 27.4688 25.125C26.1766 25.125 25.125 26.1766 25.125 27.4688C25.125 27.9008 24.775 28.25 24.3438 28.25Z" fill="black"/>
<path d="M39.1875 20.4375C38.7563 20.4375 38.4062 20.0883 38.4062 19.6562C38.4062 19.2242 38.7563 18.875 39.1875 18.875C40.4797 18.875 41.5312 17.8234 41.5312 16.5312C41.5312 16.0992 41.8812 15.75 42.3125 15.75C42.7438 15.75 43.0938 16.0992 43.0938 16.5312C43.0938 18.6844 41.3414 20.4375 39.1875 20.4375Z" fill="black"/>
<path d="M42.3125 17.3125C41.8813 17.3125 41.5312 16.9633 41.5312 16.5312V4.8125C41.5312 4.38047 41.8813 4.03125 42.3125 4.03125C42.7437 4.03125 43.0938 4.38047 43.0938 4.8125V16.5312C43.0938 16.9633 42.7437 17.3125 42.3125 17.3125Z" fill="black"/>
<path d="M39.1875 20.4375H27.4688C27.0375 20.4375 26.6875 20.0883 26.6875 19.6562C26.6875 19.2242 27.0375 18.875 27.4688 18.875H39.1875C39.6187 18.875 39.9688 19.2242 39.9688 19.6562C39.9688 20.0883 39.6187 20.4375 39.1875 20.4375Z" fill="black"/>
<path d="M42.3125 5.59375C41.8812 5.59375 41.5312 5.24453 41.5312 4.8125C41.5312 3.52031 40.4797 2.46875 39.1875 2.46875C38.7563 2.46875 38.4062 2.11953 38.4062 1.6875C38.4062 1.25547 38.7563 0.90625 39.1875 0.90625C41.3414 0.90625 43.0938 2.65781 43.0938 4.8125C43.0938 5.24453 42.7438 5.59375 42.3125 5.59375Z" fill="black"/>
<path d="M39.1875 2.46875H27.4688C27.0375 2.46875 26.6875 2.11953 26.6875 1.6875C26.6875 1.25547 27.0375 0.90625 27.4688 0.90625H39.1875C39.6187 0.90625 39.9688 1.25547 39.9688 1.6875C39.9688 2.11953 39.6187 2.46875 39.1875 2.46875Z" fill="black"/>
<path d="M24.3438 5.59375C23.9125 5.59375 23.5625 5.24453 23.5625 4.8125C23.5625 2.65781 25.3148 0.90625 27.4688 0.90625C27.9 0.90625 28.25 1.25547 28.25 1.6875C28.25 2.11953 27.9 2.46875 27.4688 2.46875C26.1766 2.46875 25.125 3.52031 25.125 4.8125C25.125 5.24453 24.775 5.59375 24.3438 5.59375Z" fill="black"/>
<path d="M24.3438 17.3125C23.9125 17.3125 23.5625 16.9633 23.5625 16.5312V4.8125C23.5625 4.38047 23.9125 4.03125 24.3438 4.03125C24.775 4.03125 25.125 4.38047 25.125 4.8125V16.5312C25.125 16.9633 24.775 17.3125 24.3438 17.3125Z" fill="black"/>
<path d="M27.4688 20.4375C25.3148 20.4375 23.5625 18.6844 23.5625 16.5312C23.5625 16.0992 23.9125 15.75 24.3438 15.75C24.775 15.75 25.125 16.0992 25.125 16.5312C25.125 17.8234 26.1766 18.875 27.4688 18.875C27.9 18.875 28.25 19.2242 28.25 19.6562C28.25 20.0883 27.9 20.4375 27.4688 20.4375Z" fill="black"/>
<path d="M16.5312 20.4375C16.1 20.4375 15.75 20.0883 15.75 19.6562C15.75 19.2242 16.1 18.875 16.5312 18.875C17.8234 18.875 18.875 17.8234 18.875 16.5312C18.875 16.0992 19.225 15.75 19.6562 15.75C20.0875 15.75 20.4375 16.0992 20.4375 16.5312C20.4375 18.6844 18.6852 20.4375 16.5312 20.4375Z" fill="black"/>
<path d="M19.6562 17.3125C19.225 17.3125 18.875 16.9633 18.875 16.5312V4.8125C18.875 4.38047 19.225 4.03125 19.6562 4.03125C20.0875 4.03125 20.4375 4.38047 20.4375 4.8125V16.5312C20.4375 16.9633 20.0875 17.3125 19.6562 17.3125Z" fill="black"/>
<path d="M16.5312 20.4375H4.8125C4.38125 20.4375 4.03125 20.0883 4.03125 19.6562C4.03125 19.2242 4.38125 18.875 4.8125 18.875H16.5312C16.9625 18.875 17.3125 19.2242 17.3125 19.6562C17.3125 20.0883 16.9625 20.4375 16.5312 20.4375Z" fill="black"/>
<path d="M19.6562 5.59375C19.225 5.59375 18.875 5.24453 18.875 4.8125C18.875 3.52031 17.8234 2.46875 16.5312 2.46875C16.1 2.46875 15.75 2.11953 15.75 1.6875C15.75 1.25547 16.1 0.90625 16.5312 0.90625C18.6852 0.90625 20.4375 2.65781 20.4375 4.8125C20.4375 5.24453 20.0875 5.59375 19.6562 5.59375Z" fill="black"/>
<path d="M16.5312 2.46875H4.8125C4.38125 2.46875 4.03125 2.11953 4.03125 1.6875C4.03125 1.25547 4.38125 0.90625 4.8125 0.90625H16.5312C16.9625 0.90625 17.3125 1.25547 17.3125 1.6875C17.3125 2.11953 16.9625 2.46875 16.5312 2.46875Z" fill="black"/>
<path d="M1.6875 5.59375C1.25625 5.59375 0.90625 5.24453 0.90625 4.8125C0.90625 2.65781 2.65859 0.90625 4.8125 0.90625C5.24375 0.90625 5.59375 1.25547 5.59375 1.6875C5.59375 2.11953 5.24375 2.46875 4.8125 2.46875C3.52031 2.46875 2.46875 3.52031 2.46875 4.8125C2.46875 5.24453 2.11875 5.59375 1.6875 5.59375Z" fill="black"/>
<path d="M1.6875 17.3125C1.25625 17.3125 0.90625 16.9633 0.90625 16.5312V4.8125C0.90625 4.38047 1.25625 4.03125 1.6875 4.03125C2.11875 4.03125 2.46875 4.38047 2.46875 4.8125V16.5312C2.46875 16.9633 2.11875 17.3125 1.6875 17.3125Z" fill="black"/>
<path d="M4.8125 20.4375C2.65859 20.4375 0.90625 18.6844 0.90625 16.5312C0.90625 16.0992 1.25625 15.75 1.6875 15.75C2.11875 15.75 2.46875 16.0992 2.46875 16.5312C2.46875 17.8234 3.52031 18.875 4.8125 18.875C5.24375 18.875 5.59375 19.2242 5.59375 19.6562C5.59375 20.0883 5.24375 20.4375 4.8125 20.4375Z" fill="black"/>
<path d="M4.8125 43.0938C2.65859 43.0938 0.90625 41.3406 0.90625 39.1875C0.90625 38.7555 1.25625 38.4062 1.6875 38.4062C2.11875 38.4062 2.46875 38.7555 2.46875 39.1875C2.46875 40.4797 3.52031 41.5312 4.8125 41.5312C5.24375 41.5312 5.59375 41.8805 5.59375 42.3125C5.59375 42.7445 5.24375 43.0938 4.8125 43.0938Z" fill="black"/>
<path d="M16.5312 43.0938H4.8125C4.38125 43.0938 4.03125 42.7445 4.03125 42.3125C4.03125 41.8805 4.38125 41.5312 4.8125 41.5312H16.5312C16.9625 41.5312 17.3125 41.8805 17.3125 42.3125C17.3125 42.7445 16.9625 43.0938 16.5312 43.0938Z" fill="black"/>
<path d="M1.6875 39.9688C1.25625 39.9688 0.90625 39.6195 0.90625 39.1875V27.4688C0.90625 27.0367 1.25625 26.6875 1.6875 26.6875C2.11875 26.6875 2.46875 27.0367 2.46875 27.4688V39.1875C2.46875 39.6195 2.11875 39.9688 1.6875 39.9688Z" fill="black"/>
<path d="M1.6875 28.25C1.25625 28.25 0.90625 27.9008 0.90625 27.4688C0.90625 25.3141 2.65859 23.5625 4.8125 23.5625C5.24375 23.5625 5.59375 23.9117 5.59375 24.3438C5.59375 24.7758 5.24375 25.125 4.8125 25.125C3.52031 25.125 2.46875 26.1766 2.46875 27.4688C2.46875 27.9008 2.11875 28.25 1.6875 28.25Z" fill="black"/>
<path d="M16.5312 25.125H4.8125C4.38125 25.125 4.03125 24.7758 4.03125 24.3438C4.03125 23.9117 4.38125 23.5625 4.8125 23.5625H16.5312C16.9625 23.5625 17.3125 23.9117 17.3125 24.3438C17.3125 24.7758 16.9625 25.125 16.5312 25.125Z" fill="black"/>
<path d="M19.6562 28.25C19.225 28.25 18.875 27.9008 18.875 27.4688C18.875 26.1766 17.8234 25.125 16.5312 25.125C16.1 25.125 15.75 24.7758 15.75 24.3438C15.75 23.9117 16.1 23.5625 16.5312 23.5625C18.6852 23.5625 20.4375 25.3141 20.4375 27.4688C20.4375 27.9008 20.0875 28.25 19.6562 28.25Z" fill="black"/>
<path d="M19.6562 39.9688C19.225 39.9688 18.875 39.6195 18.875 39.1875V27.4688C18.875 27.0367 19.225 26.6875 19.6562 26.6875C20.0875 26.6875 20.4375 27.0367 20.4375 27.4688V39.1875C20.4375 39.6195 20.0875 39.9688 19.6562 39.9688Z" fill="black"/>
<path d="M16.5312 43.0938C16.1 43.0938 15.75 42.7445 15.75 42.3125C15.75 41.8805 16.1 41.5312 16.5312 41.5312C17.8234 41.5312 18.875 40.4797 18.875 39.1875C18.875 38.7555 19.225 38.4062 19.6562 38.4062C20.0875 38.4062 20.4375 38.7555 20.4375 39.1875C20.4375 41.3406 18.6852 43.0938 16.5312 43.0938Z" fill="black"/>
</svg>
