<svg width="54" height="33" viewBox="0 0 54 33" fill="none" xmlns="http://www.w3.org/2000/svg">
<rect width="54" height="33" rx="5" fill="#F8BC7D"/>
<path d="M18.4 20.86C16.3187 21.0467 14.592 21.14 13.22 21.14C12.3053 21.14 11.6333 20.9253 11.204 20.496C10.7747 20.0667 10.56 19.3947 10.56 18.48V14C10.56 13.02 10.7793 12.3107 11.218 11.872C11.666 11.424 12.38 11.2 13.36 11.2H18.4V13.16H13.92C13.36 13.16 13.08 13.44 13.08 14V18.48C13.08 18.6947 13.1407 18.8673 13.262 18.998C13.3927 19.1193 13.556 19.18 13.752 19.18C13.948 19.18 14.1627 19.18 14.396 19.18C14.6293 19.1707 14.872 19.1613 15.124 19.152C15.376 19.1427 15.628 19.1333 15.88 19.124C16.1413 19.1147 16.4727 19.096 16.874 19.068C17.2847 19.04 17.7933 19.0073 18.4 18.97V20.86ZM22.3216 19.18C22.8163 19.18 23.3763 19.0867 24.0016 18.9V18.06H21.9716C21.8316 18.06 21.715 18.1067 21.6216 18.2C21.5283 18.2933 21.4816 18.41 21.4816 18.55V18.69C21.4816 18.83 21.5283 18.9467 21.6216 19.04C21.715 19.1333 21.8316 19.18 21.9716 19.18H22.3216ZM19.7316 13.72C21.4396 13.5333 22.9796 13.44 24.3516 13.44C24.9863 13.44 25.495 13.6313 25.8776 14.014C26.2603 14.3967 26.4516 14.9053 26.4516 15.54V21H24.2816L24.1416 20.3C23.703 20.5893 23.2503 20.804 22.7836 20.944C22.3263 21.0747 21.939 21.14 21.6216 21.14H21.1316C20.497 21.14 19.9883 20.9487 19.6056 20.566C19.223 20.1833 19.0316 19.6747 19.0316 19.04V18.41C19.0316 17.7753 19.223 17.2667 19.6056 16.884C19.9883 16.5013 20.497 16.31 21.1316 16.31H24.0016V15.75C24.0016 15.61 23.955 15.4933 23.8616 15.4C23.7683 15.3067 23.6516 15.26 23.5116 15.26C22.905 15.26 22.233 15.288 21.4956 15.344C20.7676 15.4 20.1796 15.442 19.7316 15.47V13.72ZM27.4278 19.04C29.3225 19.18 30.8158 19.25 31.9078 19.25C32.0478 19.25 32.1645 19.2033 32.2578 19.11C32.3511 19.0167 32.3978 18.9 32.3978 18.76V18.27H29.3878C28.7531 18.27 28.2445 18.0787 27.8618 17.696C27.4791 17.3133 27.2878 16.8047 27.2878 16.17V15.68C27.2878 15.0453 27.4791 14.5367 27.8618 14.154C28.2445 13.7713 28.7531 13.58 29.3878 13.58H34.1478V15.4H30.2278C30.0878 15.4 29.9711 15.4467 29.8778 15.54C29.7845 15.6333 29.7378 15.75 29.7378 15.89C29.7378 16.03 29.7845 16.1467 29.8778 16.24C29.9711 16.3333 30.0878 16.38 30.2278 16.38H32.7478C33.3825 16.38 33.8911 16.5713 34.2738 16.954C34.6565 17.3367 34.8478 17.8453 34.8478 18.48V19.04C34.8478 19.6747 34.6565 20.1833 34.2738 20.566C33.8911 20.9487 33.3825 21.14 32.7478 21.14C31.0958 21.14 29.3225 21.0467 27.4278 20.86V19.04ZM38.2789 13.72C39.1842 13.5333 39.9776 13.44 40.6589 13.44H41.2889C41.9236 13.44 42.4322 13.6313 42.8149 14.014C43.1976 14.3967 43.3889 14.9053 43.3889 15.54V21H40.9389V15.82C40.9389 15.68 40.8922 15.5633 40.7989 15.47C40.7056 15.3767 40.5889 15.33 40.4489 15.33H39.9589C39.6042 15.33 39.2776 15.3487 38.9789 15.386C38.6896 15.4233 38.4562 15.4513 38.2789 15.47V21H35.8289V11.2H38.2789V13.72Z" fill="black"/>
</svg>
