<svg width="31" height="31" viewBox="0 0 31 31" fill="none" xmlns="http://www.w3.org/2000/svg">
<circle cx="15.5" cy="15.5" r="15.5" fill="#3D514D"/>
<path d="M9.08666 11.9232V18.6357C9.1858 19.9187 9.28397 21.5973 9.38311 22.7822C9.48129 24.1643 10.6661 25.25 12.0492 25.25H19.3536C20.7358 25.25 21.9197 24.1643 22.0198 22.7822C22.1179 21.5983 22.2161 19.9197 22.3153 18.6357C22.4134 17.1554 22.3153 14.0946 22.3153 11.9232H9.08666ZM22.6117 8.96161H20.1429L19.3536 7.48033C18.8599 6.59194 17.9715 6 16.984 6H14.6153C13.6277 6 12.6402 6.59194 12.2456 7.48033L11.259 8.96161H8.79021C8.39559 8.96161 8 9.35624 8 9.75086C8 10.1455 8.39462 10.5411 8.78925 10.5411H22.6107C23.0054 10.5411 23.4 10.2446 23.4 9.75182C23.4 9.25902 23.0063 8.96161 22.6117 8.96161ZM12.9367 8.96161L13.4304 8.17236C13.6277 7.77774 14.0224 7.48033 14.5161 7.48033H16.8858C17.3796 7.48033 17.7742 7.6786 17.9715 8.1714L18.4653 8.96065L12.9367 8.96161Z" fill="white"/>
</svg>
