<svg width="57" height="33" viewBox="0 0 57 33" fill="none" xmlns="http://www.w3.org/2000/svg">
<rect width="57" height="33" rx="5" fill="#7DF8B8"/>
<path d="M13.36 21H10.84V11.2H18.61V13.16H13.36V15.47H17.49V17.43H13.36V21ZM19.59 11.2H25.47C26.45 11.2 27.1593 11.424 27.598 11.872C28.046 12.3107 28.27 13.02 28.27 14V15.26C28.27 16.0347 28.1393 16.6367 27.878 17.066C27.626 17.4953 27.22 17.78 26.66 17.92L28.41 21H25.68L24.07 18.06H22.11V21H19.59V11.2ZM25.75 14C25.75 13.44 25.47 13.16 24.91 13.16H22.11V16.1H24.91C25.47 16.1 25.75 15.82 25.75 15.26V14ZM37.4362 21H29.6662V11.2H37.4362V13.16H32.1862V15.05H36.3162V17.01H32.1862V19.04H37.4362V21ZM46.3229 21H38.5529V11.2H46.3229V13.16H41.0729V15.05H45.2029V17.01H41.0729V19.04H46.3229V21Z" fill="black"/>
</svg>
