<svg width="24" height="24" viewBox="0 0 24 24" fill="none" xmlns="http://www.w3.org/2000/svg">
<mask id="mask0_97_417" style="mask-type:luminance" maskUnits="userSpaceOnUse" x="0" y="0" width="24" height="24">
<path d="M0 7.05719e-05H23.9999V24H0V7.05719e-05Z" fill="white"/>
</mask>
<g mask="url(#mask0_97_417)">
<path d="M23 12C22.9977 12.981 22.9866 13.962 22.9732 14.9429C22.9569 16.1264 22.9387 17.3103 22.6418 18.4736C22.3306 19.6933 21.7167 20.7453 20.7616 21.5241C19.7552 22.3449 18.5387 22.7762 17.2257 22.8561C15.4843 22.962 13.7421 23.0038 12 22.9997C10.2578 23.0038 8.51565 22.962 6.77427 22.8561C5.46129 22.7762 4.24481 22.3449 3.23836 21.5241C2.28328 20.7453 1.6694 19.6933 1.35812 18.4736C1.0613 17.3103 1.04302 16.1264 1.02685 14.9429C1.01343 13.962 1.00228 12.981 1 12C1.00228 11.019 1.01343 10.038 1.02685 9.05713C1.04302 7.87365 1.0613 6.68966 1.35812 5.52645C1.6694 4.30666 2.28328 3.25467 3.23836 2.47586C4.24481 1.65515 5.46129 1.22377 6.77427 1.14393C8.51565 1.03803 10.2578 0.996172 12 1.00027C13.7421 0.996172 15.4843 1.03803 17.2257 1.14393C18.5387 1.22377 19.7552 1.65515 20.7616 2.47586C21.7167 3.25467 22.3306 4.30666 22.6418 5.52645C22.9387 6.68966 22.9569 7.87365 22.9732 9.05713C22.9866 10.038 22.9977 11.019 23 12Z" stroke="white" stroke-width="2" stroke-miterlimit="10"/>
<path d="M16.4072 11.9997C16.4072 14.4571 14.4151 16.4492 11.9576 16.4492C9.50019 16.4492 7.50806 14.4571 7.50806 11.9997C7.50806 9.54222 9.50019 7.55009 11.9576 7.55009C14.4151 7.55009 16.4072 9.54222 16.4072 11.9997Z" stroke="white" stroke-width="2" stroke-miterlimit="10"/>
<path d="M19.1193 6.27948C19.1193 6.98158 18.5501 7.55078 17.848 7.55078C17.1459 7.55078 16.5767 6.98158 16.5767 6.27948C16.5767 5.57738 17.1459 5.00817 17.848 5.00817C18.5501 5.00817 19.1193 5.57738 19.1193 6.27948Z" stroke="white"/>
</g>
</svg>
