<svg width="21" height="20" viewBox="0 0 21 20" fill="none" xmlns="http://www.w3.org/2000/svg">
<path d="M11.4014 20C12.019 20 12.5891 19.7625 13.0166 19.3349L19.3349 13.0166C20.2375 12.114 20.2375 10.6888 19.3349 9.78622L10.8789 1.33016C10.1188 0.570065 8.74109 0 7.69596 0H2.28028C1.04513 0 0 1.04512 0 2.28028V7.69597C0 8.7411 0.57007 10.1188 1.33017 10.8789L9.78622 19.3349C10.2138 19.7625 10.7838 20 11.4014 20ZM7.69596 1.42518C8.36104 1.42518 9.40617 1.85273 9.88123 2.32779L18.3373 10.7839C18.6698 11.1164 18.6698 11.639 18.3373 11.9715L12.019 18.2898C11.6865 18.6223 11.1164 18.6223 10.8314 18.2898L2.3753 9.83373C1.90024 9.35867 1.47268 8.36105 1.47268 7.64846V2.23278C1.47268 1.75773 1.85273 1.37767 2.32779 1.37767H7.69596V1.42518Z" fill="#6A6F74"/>
<path d="M5.70072 8.50358C7.22091 8.50358 8.50357 7.26843 8.50357 5.70074C8.50357 4.18055 7.26842 2.89789 5.70072 2.89789C4.18053 2.89789 2.89787 4.13304 2.89787 5.70074C2.89787 7.22093 4.13302 8.50358 5.70072 8.50358ZM5.70072 4.22805C6.50832 4.22805 7.1734 4.89313 7.1734 5.70074C7.1734 6.50834 6.50832 7.17342 5.70072 7.17342C4.89312 7.17342 4.22804 6.50834 4.22804 5.70074C4.22804 4.89313 4.89312 4.22805 5.70072 4.22805Z" fill="#6A6F74"/>
</svg>
