<svg width="20" height="20" viewBox="0 0 20 20" fill="none" xmlns="http://www.w3.org/2000/svg">
<path d="M9.99999 19.375C9.73893 19.3727 9.48123 19.316 9.24338 19.2083C9.00553 19.1007 8.79278 18.9446 8.61874 18.75C6.33749 16.25 2.49999 11.4937 2.49999 8.35C2.4716 6.33146 3.24548 4.38416 4.6517 2.93576C6.05792 1.48736 7.98149 0.656265 9.99999 0.625C12.0185 0.656265 13.9421 1.48736 15.3483 2.93576C16.7545 4.38416 17.5284 6.33146 17.5 8.35C17.5 11.475 13.6625 16.2188 11.3812 18.7563C11.2066 18.9497 10.9936 19.1046 10.7558 19.2112C10.518 19.3177 10.2606 19.3735 9.99999 19.375ZM9.99999 1.875C8.31354 1.90786 6.70885 2.60775 5.53739 3.82138C4.36594 5.03501 3.72321 6.66344 3.74999 8.35C3.74999 10.3125 5.91874 13.8875 9.54999 17.9188C9.60829 17.9792 9.67819 18.0274 9.75551 18.0602C9.83283 18.0931 9.91598 18.11 9.99999 18.11C10.084 18.11 10.1672 18.0931 10.2445 18.0602C10.3218 18.0274 10.3917 17.9792 10.45 17.9188C14.0812 13.8875 16.25 10.3125 16.25 8.35C16.2768 6.66344 15.634 5.03501 14.4626 3.82138C13.2911 2.60775 11.6864 1.90786 9.99999 1.875Z" fill="#6A6F74"/>
<path d="M10 11.875C9.25832 11.875 8.5333 11.6551 7.91661 11.243C7.29993 10.831 6.81928 10.2453 6.53545 9.56006C6.25162 8.87484 6.17736 8.12084 6.32206 7.39341C6.46675 6.66598 6.8239 5.9978 7.34835 5.47335C7.8728 4.9489 8.54098 4.59175 9.26841 4.44706C9.99584 4.30236 10.7498 4.37662 11.4351 4.66045C12.1203 4.94428 12.706 5.42493 13.118 6.04161C13.5301 6.6583 13.75 7.38332 13.75 8.125C13.75 9.11956 13.3549 10.0734 12.6517 10.7767C11.9484 11.4799 10.9946 11.875 10 11.875ZM10 5.625C9.50555 5.625 9.0222 5.77162 8.61108 6.04633C8.19995 6.32103 7.87952 6.71148 7.6903 7.16829C7.50108 7.62511 7.45158 8.12777 7.54804 8.61273C7.6445 9.09768 7.8826 9.54314 8.23223 9.89277C8.58187 10.2424 9.02732 10.4805 9.51228 10.577C9.99723 10.6734 10.4999 10.6239 10.9567 10.4347C11.4135 10.2455 11.804 9.92505 12.0787 9.51393C12.3534 9.1028 12.5 8.61945 12.5 8.125C12.5 7.46196 12.2366 6.82608 11.7678 6.35723C11.2989 5.88839 10.663 5.625 10 5.625Z" fill="#6A6F74"/>
</svg>
