<svg width="24" height="24" viewBox="0 0 24 24" fill="none" xmlns="http://www.w3.org/2000/svg">
<path d="M16.4456 13.1216C16.2302 13.1039 16.0166 13.1723 15.8516 13.3118C15.6866 13.4514 15.5837 13.6507 15.5655 13.866C15.4933 14.7173 15.4039 15.4578 15.3258 15.847V15.8517C15.0951 17.0415 13.968 18.2176 12.8121 18.4762C12.7121 18.4968 12.6115 18.5165 12.5115 18.5354C12.5974 17.4303 12.6614 16.0171 12.6528 14.9274C12.6657 13.2625 12.5063 10.699 12.365 9.67887C12.1111 7.80051 10.9561 5.71727 9.67825 4.83199L9.67051 4.82684C8.78203 4.22661 7.82982 3.72659 6.83129 3.33592C6.65317 3.26691 6.47721 3.20248 6.30339 3.14263C7.25129 2.99608 8.20924 2.92427 9.16839 2.92787C10.4742 2.92787 11.6661 3.04685 12.8121 3.28481C13.968 3.54253 15.0951 4.71946 15.3258 5.90927V5.91399C15.4035 6.30057 15.4929 7.04109 15.565 7.88985C15.5834 8.10556 15.6866 8.30515 15.8521 8.44471C16.0176 8.58427 16.2318 8.65236 16.4475 8.63402C16.6632 8.61568 16.8628 8.5124 17.0024 8.34691C17.1419 8.18141 17.21 7.96725 17.1917 7.75154C17.1135 6.83277 17.0173 6.04715 16.9271 5.59528C16.571 3.76503 14.9512 2.08598 13.1592 1.68909L13.1489 1.68694C11.8895 1.42578 10.588 1.29778 9.16538 1.2952C7.74276 1.29263 6.44642 1.42406 5.18703 1.68737L5.17629 1.68952C4.3765 1.86691 3.61149 2.29989 2.9775 2.88706C2.80616 3.01626 2.65639 3.17182 2.53379 3.34795C1.97368 4.0017 1.56691 4.78389 1.40884 5.59528C1.21082 6.58793 0.987035 9.16214 1.00422 10.8803C0.994767 11.8021 1.05447 12.9704 1.14296 14.0086C1.19021 14.6744 1.2439 15.2542 1.29544 15.6262C1.5493 17.5046 2.70432 19.5878 3.98261 20.4731L3.98991 20.4782C4.87861 21.0784 5.83095 21.5784 6.82957 21.9692C7.84069 22.3617 8.76849 22.5997 9.66665 22.6968H9.67438C10.8814 22.8046 11.9784 21.757 12.3104 20.2252C12.5914 20.1806 12.8698 20.1297 13.1459 20.0728L13.1562 20.0706C14.9486 19.6737 16.568 17.9947 16.9241 16.1644C17.0143 15.7117 17.1109 14.9243 17.1891 14.0034C17.2073 13.7879 17.1392 13.574 16.9998 13.4087C16.8604 13.2433 16.6611 13.1401 16.4456 13.1216Z" fill="#6A6F74"/>
<path d="M22.9997 10.8791C22.9997 10.8521 22.9997 10.825 22.9954 10.7979C22.9956 10.7962 22.9956 10.7945 22.9954 10.7928C22.9928 10.7674 22.9889 10.7422 22.9838 10.7172V10.7116C22.9515 10.5565 22.8747 10.4142 22.7626 10.3022L19.8417 7.37883C19.6887 7.22573 19.4811 7.13969 19.2646 7.13965C19.0481 7.13961 18.8404 7.22557 18.6873 7.37862C18.5342 7.53167 18.4482 7.73928 18.4482 7.95576C18.4481 8.17225 18.5341 8.37989 18.6871 8.533L20.2193 10.0647H14.5851C14.3686 10.0647 14.161 10.1507 14.008 10.3038C13.8549 10.4568 13.769 10.6644 13.769 10.8808C13.769 11.0973 13.8549 11.3049 14.008 11.4579C14.161 11.611 14.3686 11.6969 14.5851 11.6969H20.212L18.6811 13.2278C18.5286 13.381 18.443 13.5884 18.4433 13.8045C18.4435 14.0207 18.5295 14.2279 18.6823 14.3808C18.8352 14.5336 19.0424 14.6196 19.2585 14.6198C19.4747 14.62 19.6821 14.5345 19.8353 14.382L22.7428 11.4745C22.8482 11.3757 22.9254 11.2505 22.9662 11.1119C22.9735 11.0872 22.9796 11.0621 22.9842 11.0368C22.9844 11.0332 22.9844 11.0296 22.9842 11.026C22.9881 11.0041 22.9919 10.9831 22.9941 10.9599C22.9962 10.9367 22.9941 10.9264 22.9941 10.91V10.8817L22.9997 10.8791Z" fill="#6A6F74"/>
</svg>
