<svg width="24" height="24" viewBox="0 0 24 24" fill="none" xmlns="http://www.w3.org/2000/svg">
<path d="M20 3H4C3.20435 3 2.44129 3.31607 1.87868 3.87868C1.31607 4.44129 1 5.20435 1 6V18C1 18.7956 1.31607 19.5587 1.87868 20.1213C2.44129 20.6839 3.20435 21 4 21H20C20.7956 21 21.5587 20.6839 22.1213 20.1213C22.6839 19.5587 23 18.7956 23 18V6C23 5.20435 22.6839 4.44129 22.1213 3.87868C21.5587 3.31607 20.7956 3 20 3ZM19.672 15.62C19.7735 15.707 19.8566 15.8136 19.9162 15.9332C19.9758 16.0529 20.0109 16.1834 20.0192 16.3168C20.0275 16.4503 20.009 16.5841 19.9648 16.7103C19.9205 16.8365 19.8514 16.9525 19.7614 17.0515C19.6715 17.1505 19.5627 17.2304 19.4414 17.2866C19.32 17.3428 19.1886 17.3741 19.055 17.3786C18.9213 17.3832 18.7881 17.3608 18.6633 17.313C18.5384 17.2651 18.4244 17.1927 18.328 17.1L14.185 13.34C13.538 13.7716 12.7777 14.002 12 14.002C11.2223 14.002 10.462 13.7716 9.815 13.34L5.672 17.1C5.4744 17.2694 5.21854 17.3551 4.95878 17.3389C4.69902 17.3226 4.45582 17.2057 4.28085 17.0131C4.10587 16.8204 4.01291 16.5671 4.02172 16.307C4.03052 16.0468 4.1404 15.8004 4.328 15.62L8.284 12.029L4.327 8.43C4.22982 8.34162 4.151 8.23497 4.09504 8.11613C4.03908 7.99728 4.00708 7.86859 4.00086 7.73738C3.98829 7.47239 4.08151 7.21326 4.26 7.017C4.43849 6.82074 4.68763 6.70342 4.95262 6.69086C5.21761 6.67829 5.47674 6.77151 5.673 6.95L10.652 11.479C11.0212 11.8152 11.5026 12.0016 12.002 12.0016C12.5014 12.0016 12.9828 11.8152 13.352 11.479L18.327 6.95C18.5233 6.77151 18.7824 6.67829 19.0474 6.69086C19.3124 6.70342 19.5615 6.82074 19.74 7.017C19.9185 7.21326 20.0117 7.47239 19.9991 7.73738C19.9866 8.00237 19.8693 8.25151 19.673 8.43L15.717 12.03L19.672 15.62Z" fill="#6A6F74"/>
</svg>
