<svg width="105" height="50" viewBox="0 0 105 50" fill="none" xmlns="http://www.w3.org/2000/svg">
<g clip-path="url(#clip0_246_1874)">
<path d="M99.7423 13.5282C100.988 13.7322 102.202 14.0564 103.307 14.67C103.715 14.8969 104.119 15.2177 104.249 15.7327C104.285 16.9169 103.62 17.4942 102.535 17.7396C102.135 17.8302 101.73 17.9297 101.347 18.074C100.253 18.4866 99.2414 18.5603 98.4312 17.3075C98.1779 18.57 97.5033 19.1959 96.4352 19.4808C94.1269 20.0957 91.8474 20.8084 89.6118 21.6549C86.4822 22.6532 83.3608 23.6749 80.2503 24.73C76.9729 26.0013 73.5353 26.7949 70.2528 28.0522C69.4494 28.3599 68.6566 28.5004 67.8451 27.5774C68.0257 28.4987 67.8018 29.0028 67.0982 29.2533C64.8808 30.0439 62.6375 30.7651 60.4873 31.7338C60.2969 31.8197 60.0815 31.7977 59.8776 31.7461C59.3741 31.5298 59.18 30.9708 58.5949 30.6432C59.3308 32.1575 57.65 32.0453 57.2651 32.8211C54.3178 33.9837 51.4058 33.852 48.5231 32.593C48.2652 32.4762 47.9971 32.383 47.7392 32.2667C47.4503 32.1363 47.0237 32.0491 47.0288 31.6902C47.0356 31.201 47.4821 31.0846 47.8968 31.0152C49.7203 31.2717 51.4168 30.3579 53.2374 30.4286C53.7816 30.4498 54.3794 30.4946 55.0303 30.3351C54.9041 29.7324 54.4113 29.633 53.9771 29.4861C53.559 29.3443 53.0568 29.4671 52.7131 29.0845C52.9718 28.3278 53.7255 28.4471 54.2757 28.205C57.3607 28.3383 60.418 28.2499 63.3568 27.1334C61.4054 26.2722 59.4243 26.4707 57.4359 26.8342C56.3499 26.8787 55.306 27.0801 54.4249 27.7598C53.7213 28.3024 53.1809 28.1496 52.442 27.6815C50.9091 26.7098 49.2436 25.984 47.3271 26.3716C46.1583 26.2506 44.9597 26.3877 43.8257 25.97C43.519 25.4604 43.785 25.2044 44.2434 25.0326C44.7256 25.1227 45.2036 25.3149 45.7049 25.1401C49.2092 23.9182 52.9591 24.5632 56.2616 23.6529C54.2796 22.4552 51.8854 22.3159 49.4127 22.7408C46.8431 22.7061 44.6474 23.3668 43.4608 25.9107C43.2101 26.1617 42.9395 26.2658 42.6217 26.025C41.5077 24.7041 40.0954 23.8856 38.4023 23.5306C38.0879 23.4645 37.7561 23.4163 37.5118 23.1683C37.454 23.0566 37.4281 22.9376 37.4281 22.8128C37.7387 21.7996 38.5425 21.5931 39.4662 21.5719C40.9524 21.5376 42.4271 21.3717 43.8818 21.0797C44.322 20.9912 45.0188 21.0272 45.009 20.3657C45.0005 19.7982 44.4197 19.6412 43.9311 19.5112C43.7314 19.4583 43.533 19.4037 43.3588 19.2865C43.0941 18.3144 42.323 17.8734 41.4873 17.4747C39.2644 16.4137 36.8924 16.175 34.4778 16.2148C33.7254 16.2271 33.1119 16.0531 32.5655 15.53C31.8156 14.8122 30.8232 14.4885 29.9424 13.9819C29.7703 13.9535 29.8821 14.2316 29.8868 14.0665C29.8889 13.9997 29.9246 13.9878 29.9998 14.0162C30.1544 14.0746 30.3065 14.1372 30.4497 14.2218C31.0152 14.5566 31.4116 14.9731 31.361 15.7027C31.3062 16.4962 30.5504 16.3219 30.1497 16.638C29.9815 16.9076 29.7007 16.9901 29.4254 17.0587C27.6583 17.5001 26.3166 18.5874 25.0955 19.8651C24.7276 19.9836 24.3593 19.9895 23.9905 19.8735C22.7422 18.9763 21.6728 17.7672 20.0095 17.5924C19.0472 19.0216 17.3515 18.9539 15.9754 19.4537C13.2643 20.4385 10.532 19.6716 7.84175 19.0884C7.24439 18.9589 6.63131 18.8379 6.06709 18.5764C5.70383 17.7426 6.49875 17.7248 6.88581 17.5568C8.42722 16.8869 9.93294 16.1145 11.7314 15.7628C11.2955 15.0941 10.6276 14.9595 10.0846 14.6531C9.32114 14.0894 8.10687 14.2629 7.65779 13.185C7.9365 12.7097 8.42382 12.7689 8.86313 12.7372C10.0923 12.6487 11.3155 12.5209 12.5272 12.2903C14.2088 11.9703 14.2373 11.9428 14.2054 10.2745C15.3249 10.514 16.1742 9.73064 17.1697 9.49914C19.212 9.70059 21.1876 9.42127 23.1926 8.78432C22.7809 7.94423 21.6095 8.7894 21.4307 7.79103C23.2712 7.44314 25.2396 7.61243 26.8808 6.45619C27.1532 6.63606 27.3873 6.93231 27.7463 6.89719C29.9675 6.67965 32.2129 6.55904 34.2272 5.432C34.3054 5.38841 34.3385 5.31011 34.3419 5.13829C33.8886 4.95038 33.3949 5.17722 32.9288 5.10316C32.5277 5.03925 31.9873 5.21658 31.8802 4.56906C33.2619 4.2309 34.7748 4.59191 36.0698 3.79033C38.4265 3.88937 40.7378 3.73912 42.9777 2.86856C44.2425 2.37678 44.2854 2.42841 43.5704 1.34963C44.6776 1.36529 45.7907 1.1778 46.8873 1.52145C47.59 1.74195 48.1228 1.14606 48.7652 1.04702C49.6778 0.981849 50.5994 0.781243 51.4763 1.23239C51.7104 2.17575 51.2698 2.44196 50.4146 2.26166C49.8461 2.14189 49.3061 1.79274 48.6985 2.03736C48.5316 2.1055 48.8107 2.20284 48.71 2.07164C48.6548 2.00011 48.6756 1.97176 48.7699 1.96203C49.6328 1.8723 50.3691 2.32642 51.1653 2.5211C51.3624 2.56935 51.5532 2.75641 51.512 2.97352C51.472 3.18386 51.2379 3.26427 51.0336 3.31548C50.7489 3.38658 50.4536 3.40944 50.1703 3.34807C48.2762 2.93585 46.4531 3.40139 44.6593 3.8754C43.0546 4.29947 41.4129 4.52927 39.8108 4.94572C39.4297 5.04476 39.0723 4.94699 38.7082 4.88605C38.0132 4.53393 37.2458 4.47637 36.7084 4.40442C37.1774 4.31766 37.785 4.69729 38.458 4.71464C38.8552 5.12136 39.9374 4.85896 39.7577 5.72318C39.6136 6.41641 38.7554 6.26405 38.1606 6.38213C36.0278 6.8062 33.9238 7.34411 31.8424 8.04961C33.0847 8.36914 34.1108 9.31377 35.4712 9.10216C35.82 9.15041 36.1539 9.23124 36.3655 9.54823C38.2965 9.84364 40.1851 10.28 41.8803 11.3071C42.2495 11.531 42.8452 11.6334 42.7789 12.1879C42.713 12.7402 42.1399 12.7385 41.7018 12.8345C39.8006 13.2531 38.0115 14.0018 36.1136 14.6988C36.5342 14.6616 36.7827 14.2587 37.1715 14.4732C37.3818 14.6628 37.5424 14.9845 37.8611 14.9485C39.8329 14.7255 41.834 15.1047 43.7913 14.6645C45.1258 14.3645 45.1229 14.3501 44.3985 13.2463C44.2366 12.9996 44.1219 12.7406 44.1631 12.4342C44.6462 11.6114 45.583 11.5035 46.3239 11.1031C48.4147 9.97357 50.6606 9.33028 53.0411 9.17411C54.9084 9.52961 56.7072 10.1217 58.4836 10.7806C58.8936 10.9326 59.4956 11.1023 59.4383 11.5975C59.3728 12.1612 58.7381 12.0241 58.309 12.0643C57.8998 12.1024 57.483 12.0567 57.0862 12.1959C54.404 12.636 51.7707 13.4317 48.9764 13.3403C50.4354 13.7588 51.6297 14.6781 53.0156 15.1864C53.8615 15.4056 54.5115 14.9193 55.1981 14.582C57.26 13.5697 59.3665 12.6991 61.6926 12.5065C64.5133 12.5048 67.3255 12.3906 70.1054 11.8616C70.4087 11.804 70.6416 11.636 70.6828 11.3088C70.7478 10.7946 70.2231 10.8111 69.9839 10.5682C69.9014 10.4696 69.8734 10.3562 69.8908 10.23C70.1041 9.98584 70.4028 9.9012 70.6917 9.79878C71.6383 9.70144 72.3746 8.9625 73.3424 8.93076C73.8807 9.19231 73.0149 9.86565 73.6887 10.0874C75.6274 10.655 77.6518 10.9885 79.3228 12.2391C79.506 12.4084 79.7286 12.6094 79.6394 12.8595C79.5064 13.2319 79.1631 13.0406 78.8907 13.0445C77.1203 13.0698 75.3508 12.975 73.5842 13.2836C72.2858 13.5104 71.2835 14.0437 70.687 15.2206C71.3447 15.1275 71.9455 14.5668 72.6877 14.9189C72.8487 15.2363 72.5683 15.5182 72.5458 15.8661C74.6085 15.0158 76.7664 15.2803 78.8266 14.899C79.0288 14.8618 79.2408 14.8778 79.4426 14.8347C79.6806 14.7839 79.9784 14.7564 79.9967 14.4436C80.0171 14.0902 79.7222 13.9738 79.4426 13.8761C78.9167 13.6916 78.2547 13.9688 77.8405 13.4038C77.8728 13.2806 77.9301 13.1113 78.0368 13.1117C80.0179 13.1202 81.7046 12.0634 83.5579 11.6152C83.8009 11.5564 84.0456 11.5276 84.2895 11.6064C84.8848 12.3093 85.6023 12.4503 86.5073 12.253C87.8244 11.9661 89.2078 11.9826 90.6277 11.393C89.9725 10.5957 89.0416 11.0155 88.4167 10.6169C88.3151 10.5297 88.2883 10.4213 88.3245 10.2956C91.2072 10.2025 93.9879 10.6122 96.5788 11.958C95.8471 13.0017 94.6023 12.8019 93.5975 13.1837C91.8993 13.2455 90.2835 13.8316 88.5887 13.9556C87.0558 14.0678 85.5416 14.1778 84.5589 13.805C85.2331 14.0255 86.4997 14.1207 87.5992 14.7339C87.9591 14.9346 88.4362 15.1538 88.3274 15.6176C88.2352 16.0116 87.7314 15.9803 87.3668 16.0303C86.4257 16.1598 85.4817 16.2698 84.547 16.4433C83.1632 16.7006 82.2106 17.5247 81.4353 18.716C82.073 18.8443 82.5637 18.4392 83.1012 18.5819C83.5766 18.9522 84.086 19.1236 84.7101 18.997C87.0936 18.5129 89.4499 17.9127 92.0875 17.4193C91.4124 16.8852 90.8919 16.9969 90.3494 17.0921C89.7575 17.1958 89.1215 17.2843 89.2222 16.3308C89.6721 15.7162 90.3969 15.817 91.0151 15.6392C93.094 15.249 94.9978 14.2743 97.0695 13.8469C97.9562 13.664 98.8229 13.4169 99.7398 13.5278L99.7423 13.5282Z" fill="#FBB3AF"/>
<path d="M104.713 21.6811C104.752 23.6363 104.955 25.595 104.599 27.5426C101.784 29.6325 98.4167 30.4806 95.1902 31.6068C89.2077 33.6954 83.2524 35.8648 77.2235 37.8222C76.5195 38.0508 75.6311 38.1147 75.3231 39.0165C75.5976 39.8029 75.1561 40.5219 75.1094 41.2795C75.0618 41.384 74.9913 41.4695 74.9029 41.536C74.7572 41.5728 74.5537 41.42 74.4568 41.5808C73.7643 42.7278 72.8899 42.2669 72.0168 41.8745C71.8018 41.3608 71.798 40.8135 71.7568 40.2727C71.7742 39.328 71.2019 39.8075 70.8582 39.9392C68.2415 40.9426 65.5984 41.8754 62.9931 42.9097C60.8488 43.7608 58.7117 44.6399 56.457 45.1782C55.9773 45.2929 55.5023 45.4486 54.9963 45.3995C54.712 45.3479 54.4278 45.3001 54.1385 45.2781C53.8096 45.2527 53.3686 45.251 53.2887 44.9048C53.1957 44.5023 53.6656 44.4274 53.9456 44.2979C54.6105 43.9902 54.6249 43.5734 54.4516 42.8937C54.0981 41.5093 54.065 40.1 54.916 38.821C60.1333 37.3508 65.052 35.0353 70.2256 33.4394C70.8489 33.2472 71.5979 33.1592 71.3659 32.1879C71.3005 31.2767 71.2389 30.374 72.0198 29.6748C73.1257 28.6849 74.2163 28.9735 74.6425 30.3782C74.7376 30.6922 74.7206 31.0325 74.8783 31.3262C75.1804 31.8265 75.5946 31.6043 75.9774 31.4794C83.062 29.1695 90.1012 26.7246 97.1557 24.3266C99.4257 23.5551 101.739 22.8881 103.878 21.7678C104.133 21.6345 104.418 21.5477 104.713 21.6815V21.6811Z" fill="#F06D75"/>
<path d="M0.16229 21.1017C-0.263425 19.7915 0.280403 18.5138 0.291874 17.2179C0.454598 17.0384 0.654285 17.0384 0.85737 17.1205C4.81839 18.7296 8.97698 19.7153 13.0391 21.0027C17.298 22.3524 21.5577 23.7325 25.7324 25.3416C26.4305 25.6107 27.1481 25.8134 27.8669 26.0136C29.6994 26.524 31.5552 26.9244 33.2589 27.8584C34.1486 28.3464 35.2052 28.4852 36.2449 28.6342C38.2719 28.9241 40.0788 29.9246 41.9631 30.6648C45.3077 31.9789 48.7665 32.9261 52.2215 33.8855C52.9034 34.0747 53.6303 33.8948 54.3242 34.0446C54.8025 34.1962 55.2775 34.2139 55.7819 34.1221C56.6061 33.9723 57.1593 34.4607 57.432 35.1315C57.7294 35.8645 57.1814 36.3296 56.5645 36.5023C55.9828 36.6652 55.9335 37.6924 55.0966 37.3318C55.2244 37.5345 55.4466 37.73 55.1437 37.9675C54.014 38.604 52.818 38.3746 51.6377 38.2121C48.4568 37.7745 45.5205 36.5023 42.5082 35.498C39.7266 34.5707 36.9323 33.6824 34.1562 32.739C33.6124 32.5541 33.0337 32.4368 32.5953 32.0242C32.5094 31.9332 32.4444 31.8265 32.3985 31.7102C32.2855 31.3936 32.3301 31.0652 32.3395 30.7385C32.3569 30.132 31.9962 29.8315 31.4519 29.7536C30.9149 29.6766 30.7726 30.0909 30.6404 30.4985C30.4909 30.9602 30.4888 31.4782 30.1268 31.8625C30.0048 31.8985 29.888 31.8896 29.7746 31.8321C29.3506 31.2675 28.7124 31.0838 28.0849 30.8696C21.4332 28.5982 14.7101 26.5439 8.04397 24.3161C5.3431 23.4134 2.69619 22.4015 0.16314 21.1013L0.16229 21.1017Z" fill="#EC5052"/>
<path d="M55.2444 37.741C55.0787 37.4634 54.6343 37.4541 54.5676 37.0262C54.9763 36.9403 55.9302 37.8037 55.6404 36.4502C55.6064 36.2915 55.9994 36.4485 56.1842 36.3952C56.7523 36.2314 57.4223 35.8755 57.2566 35.3257C57.1041 34.8204 56.6206 34.1234 55.7547 34.4133C55.3235 34.5576 54.8816 34.6994 54.5009 34.2893C55.2648 33.4796 56.4209 33.6989 57.3122 33.2244C58.4275 32.8533 59.5776 32.5845 60.65 32.0877C61.3536 31.8181 61.99 31.3877 62.7382 31.2252C67.56 29.5881 72.3423 27.8411 77.1484 26.1613C78.7034 25.6175 80.2703 25.0876 81.8614 24.642C82.9763 24.3301 84.0371 23.917 85.0798 23.3757C86.6564 22.5568 88.4923 22.4226 90.1561 21.8034C93.6888 20.4885 97.4038 19.7986 100.98 18.6365C101.85 18.3538 102.659 17.928 103.487 17.5488C103.895 17.3618 104.29 17.0642 104.746 17.4405C104.853 18.6433 105.208 19.8405 104.83 21.0543C95.93 24.7905 86.6547 27.461 77.5295 30.5573C76.5506 30.8895 75.6048 31.3178 74.5996 31.573C74.3557 31.3018 74.4981 30.9344 74.38 30.6483C74.1684 30.1345 74.2635 29.2504 73.3807 29.3744C72.5127 29.4963 71.7322 29.9068 71.6642 30.9589C71.6353 31.4029 71.6748 31.8515 71.6829 32.298C71.5091 32.5388 71.2874 32.7217 71.0006 32.8038C66.1609 34.1928 61.6064 36.3973 56.7544 37.7487C56.262 37.8858 55.7445 38.207 55.2449 37.741H55.2444Z" fill="#E24047"/>
<path d="M29.8621 31.796C29.9305 31.7943 29.9985 31.7888 30.0661 31.7791C30.5729 32.5401 30.208 33.3696 30.2148 34.1584C30.2262 35.4535 30.1289 36.7545 29.6556 37.989C29.2397 38.2425 28.8467 38.0169 28.4681 37.8959C19.9198 35.1632 11.4179 32.2925 2.97664 29.2466C1.61494 28.7552 0.398552 28.0806 0.26217 26.4059C0.143633 24.8933 0.13641 23.3816 0.282989 21.8703C0.765211 21.5892 1.16671 21.8825 1.56396 22.0743C5.53858 23.9914 9.78383 25.1612 13.9611 26.5109C18.9303 28.1166 23.8817 29.779 28.8888 31.2662C29.2507 31.3737 29.5834 31.5358 29.8617 31.7965L29.8621 31.796Z" fill="#FC7E7E"/>
<path d="M57.4737 33.5147C56.4829 33.7729 55.4917 34.031 54.5009 34.2892C52.6506 34.395 50.9405 33.8283 49.1722 33.3708C45.1318 32.3254 41.3016 30.7485 37.4591 29.1869C36.6022 28.8385 35.7002 29.0446 34.8296 28.7319C28.7124 26.535 22.4639 24.7079 16.3556 22.5038C11.8469 20.8769 7.12286 19.9954 2.68047 18.2068C1.8813 17.8852 1.0885 17.5479 0.292725 17.2182C0.547644 16.5457 0.30887 15.7065 0.98653 15.1762C1.8078 15.5274 2.5955 15.5575 3.49239 15.2896C4.59236 14.9616 5.07501 14.3594 5.01086 13.2581C5.32823 13.1612 5.64603 13.0643 5.9634 12.9678C6.59603 12.7122 7.19976 12.6394 7.69728 13.2395C8.46501 13.7855 9.47662 13.8185 10.215 14.4262C10.1313 14.8016 9.82841 14.9603 9.51358 15.0577C7.99299 15.5266 6.66826 16.3878 5.31039 17.1678C4.42072 17.6791 3.55569 17.8526 2.86231 17.5974C3.72096 17.859 4.9671 17.7743 6.01481 18.4278C7.15515 18.3457 8.16166 18.9242 9.25866 19.0753C11.4782 19.3804 13.6824 19.9251 15.9235 19.1828C16.9266 18.8506 17.8524 18.2851 18.9579 18.2479C19.6653 18.2242 19.4321 17.4971 19.6866 17.1272C19.7057 17.0997 19.7609 17.0815 19.7966 17.0853C19.8323 17.0887 19.865 17.1251 19.899 17.1467C21.0194 18.3211 20.9807 18.7278 19.7673 19.7258C18.8666 20.4664 17.7275 20.8376 16.8485 21.7268C17.182 21.7983 17.5244 21.6933 17.8443 21.7699C20.6353 22.1898 23.3659 23.2203 26.2601 22.5423C27.2679 22.3061 28.2366 21.9574 29.2018 21.5968C29.8064 21.3708 30.3974 21.2705 30.971 21.67C31.426 22.2503 30.9374 22.4797 30.5457 22.665C29.7482 23.0417 29.1364 23.5919 28.5318 24.2365C28.0394 24.7612 28.2068 25.0249 28.5552 25.4075C31.9524 25.8963 35.1886 25.3982 38.26 23.8699C38.4074 23.7967 38.5485 23.7108 38.6921 23.6317C39.2529 23.5491 39.8401 23.6215 40.0657 24.1594C40.301 24.721 39.8035 25.1366 39.4568 25.5395C38.6691 26.4554 37.5611 26.8058 36.4862 27.2185C36.0694 27.3784 35.7129 27.6645 35.2728 27.783C36.0851 27.7885 36.8167 28.5537 37.6592 28.0035C38.2893 27.7293 38.893 27.9227 39.4645 28.1559C42.1692 29.2588 44.856 29.1839 47.5624 28.1504C49.052 27.5816 50.596 27.3623 52.1824 27.709C52.9085 28.0569 52.64 28.5266 52.1106 28.5368C50.8262 28.5613 49.8176 29.4717 48.5566 29.481C48.2528 29.4831 47.9852 29.6105 47.805 29.8538C47.361 30.4544 46.6392 30.3211 46.0818 30.5539C43.7509 31.5268 42.0719 29.6829 40.2785 29.5242C42.8354 30.4658 45.738 31.201 48.4729 32.405C51.2451 33.6141 54.0629 33.8482 56.9507 32.835C57.1877 32.7521 57.514 32.5206 57.7158 32.8748C57.8616 33.1304 57.6024 33.317 57.4741 33.5155L57.4737 33.5147Z" fill="#F4988F"/>
<path d="M0.260039 31.3076C0.0824454 30.2521 0.253666 29.2034 0.317821 28.1521C0.483518 28.0979 0.658563 28.0971 0.791971 28.2021C3.0667 29.9919 5.86402 30.5962 8.51008 31.5027C15.517 33.9037 22.5408 36.2563 29.6085 38.4812C30.1978 39.3095 29.9076 40.2295 29.8906 41.1213C29.8549 41.255 29.7933 41.3769 29.7087 41.4865C29.1254 41.8665 28.5846 41.5263 28.0518 41.3578C24.813 40.3349 21.6448 39.1093 18.4345 38.0047C13.5787 36.3342 8.64434 34.905 3.769 33.2942C2.47571 32.8668 1.14886 32.4609 0.260464 31.3072L0.260039 31.3076Z" fill="#EF5259"/>
<path d="M74.9106 41.4755C74.7024 40.7218 75.2364 39.9778 74.9416 39.2227C75.6893 38.5972 76.5981 38.295 77.5014 38.0043C84.8686 35.6326 92.1376 32.9819 99.4266 30.3872C100.948 29.8455 102.457 29.2699 103.799 28.3426C103.997 28.2059 104.207 28.0459 104.479 28.178C104.506 28.3875 104.532 28.5965 104.559 28.806C104.714 29.7359 104.306 30.57 104.067 31.4215C103.823 32.2921 103.006 32.4999 102.247 32.7411C97.2704 34.3197 92.2447 35.7477 87.3328 37.5214C84.7216 38.4643 82.0258 39.1555 79.4511 40.2004C78.3044 40.5487 77.2095 41.0392 76.0747 41.4188C75.697 41.5449 75.315 41.8006 74.911 41.4751L74.9106 41.4755Z" fill="#ED464E"/>
<path d="M35.5987 9.28115C34.955 9.57994 34.3542 9.54058 33.6995 9.22063C32.8515 8.80587 31.9469 8.50496 30.9094 8.09275C33.748 6.77865 36.7203 6.40453 39.6332 5.76673C39.527 5.10905 38.7792 5.24956 38.5753 4.78994L38.5685 4.79798C40.658 4.38704 42.7534 4.0218 44.8161 3.46527C46.9167 2.89858 49.0588 2.45589 51.2766 3.06194C50.4443 2.38817 49.4693 2.19138 48.3667 1.95607C49.0223 1.71991 49.5466 1.73218 50.0262 1.95607C50.7842 2.30903 51.263 2.10462 51.54 1.34282C52.4578 0.474374 53.6219 0.58949 54.7461 0.545898C55.8087 0.694872 56.706 1.31616 57.7278 1.58109C58.0549 2.18926 57.5268 2.27644 57.1797 2.39621C56.372 2.67512 55.5809 2.99465 54.7886 3.28878C54.7601 3.3036 54.7236 3.3273 54.6853 3.33111C54.5681 3.34253 54.5175 3.44157 54.5885 3.46273C55.2351 3.65783 56.0891 3.43903 56.3555 4.37307C56.3296 4.50681 56.2535 4.59569 56.126 4.64351C55.7505 4.72223 55.3745 4.67694 55.021 4.57368C51.803 3.63117 48.8141 4.27869 45.948 5.8336C45.6582 5.99104 45.3587 6.13155 45.0596 6.27121C44.7031 6.42188 44.3632 6.60852 44.0063 6.75834C41.4015 7.42491 38.7626 7.98314 36.3307 9.19735C36.1183 9.30358 35.851 9.32009 35.5991 9.282L35.5987 9.28115Z" fill="#F5787A"/>
<path d="M57.4737 33.5147C57.3564 33.3399 57.995 32.7499 57.1657 32.9637C56.6873 33.0868 56.1851 33.1418 55.7266 33.3149C53.1103 34.304 50.7124 33.273 48.2783 32.5544C48.2367 32.3233 48.2834 32.1849 48.56 32.2878C51.4865 33.5596 54.4474 33.4834 57.4312 32.5138C58.1297 32.003 58.8719 31.5907 59.7544 31.4955C60.9202 31.4782 61.7908 30.6605 62.8606 30.3596C64.0102 30.0363 65.1208 29.5771 66.2501 29.1809C67.1368 28.8694 68.3592 28.7924 67.3552 27.0708C68.9744 28.7213 70.3488 27.6049 71.7092 27.1774C74.5401 26.2878 77.351 25.3339 80.1704 24.4066C80.5243 24.6487 80.8082 24.3533 81.0971 24.2559C83.6339 23.404 86.1963 22.6312 88.7417 21.8068C89.0454 21.7082 89.3994 21.7056 89.5697 21.362C91.7642 20.3996 94.0657 19.744 96.3816 19.1777C97.1447 18.9911 97.4268 18.3609 98.0165 18.0663C98.0509 18.0494 98.0845 18.0105 98.0976 17.9745C98.3959 17.1458 98.4052 17.1327 99.3752 17.864C99.6722 18.0875 99.9373 18.1501 100.288 18.0401C100.996 17.8179 101.704 17.5839 102.429 17.4298C103.399 17.2237 104.053 16.7341 104.25 15.7314C104.18 16.3688 104.763 16.8179 104.747 17.4396C103.324 17.7434 102.177 18.7008 100.781 19.0804C99.3608 19.4664 97.96 19.8997 96.5154 20.2155C94.7565 20.6002 93.0587 21.2595 91.3283 21.7776C89.7189 22.2596 88.0971 22.7014 86.4869 23.1818C84.9187 23.6495 83.5473 24.5653 81.9447 25.0114C78.1532 26.0669 74.4641 27.4517 70.7622 28.7895C68.0936 29.754 65.3923 30.6292 62.7055 31.5442C62.2216 31.1455 61.8744 31.6153 61.4747 31.7397C61.023 31.8807 60.5986 32.124 60.1979 32.1062C59.9388 32.0533 60.1826 32.3462 60.1665 32.1816C60.1631 32.149 60.2039 32.1528 60.2855 32.1469C60.4605 32.1342 60.6066 32.1799 60.7239 32.3115C59.7497 33.0043 58.5469 33.0839 57.4745 33.5139L57.4737 33.5147Z" fill="#F37F7C"/>
<path d="M0.260044 31.3076C5.35801 34.0552 11.0729 35.059 16.4682 36.9661C20.8261 38.5062 25.1346 40.2016 29.597 41.4416C30.5049 41.4276 31.3092 41.9059 32.1989 41.9829C38.1882 43.9983 44.0858 46.2739 50.0955 48.2317C51.7359 48.7663 53.4158 48.8475 55.114 48.8598C55.4012 48.9161 55.668 48.9999 55.7806 49.3706C54.7202 49.9267 53.593 49.8065 52.4633 49.7291C51.9041 49.6906 51.3569 49.407 50.7834 49.6364C47.2935 48.7574 43.9745 47.3709 40.5726 46.2308C28.243 42.0997 16.0128 37.6741 3.59184 33.8118C2.8462 33.5799 2.11416 33.273 1.42078 32.9146C0.791126 32.5891 0.236251 32.1363 0.260469 31.3076H0.260044Z" fill="#F59B91"/>
<path d="M56.969 11.967C57.6598 11.4574 58.4904 11.9297 59.3958 11.5954C57.2625 10.5847 55.142 10.0007 52.9965 9.48775C53.1158 8.85589 53.6074 8.89863 54.0739 8.89567C56.0117 9.11659 57.93 8.83642 59.8495 8.64131C61.6471 8.45848 63.4184 8.01918 65.2487 8.14107C64.6225 7.85878 63.9669 7.74113 63.3547 7.49397C63.0577 7.3742 62.663 7.24088 62.7501 6.83459C62.8164 6.52522 63.1864 6.48543 63.4694 6.46258C65.1502 6.328 66.7829 5.78374 68.4998 5.92509C69.2782 5.989 70.0752 5.85568 70.8485 5.90393C71.7883 5.96234 72.0564 5.60429 71.914 4.76208C73.2035 5.03548 74.4887 5.32285 75.6792 5.91663C75.7871 6.5722 75.2849 6.49178 74.9233 6.49559C73.2523 6.51294 72.0823 7.42244 71.0847 8.62015C70.7197 9.05819 70.4147 9.53304 69.9346 9.48014C70.209 9.44628 70.5608 9.55251 70.6976 10.043C70.472 10.2927 70.1814 10.2479 69.8942 10.2182C68.5389 10.17 67.2227 9.73745 65.8491 9.83903C64.6301 9.92959 63.4634 10.1497 62.5551 11.0363C61.7589 11.8129 61.0672 12.5417 59.7059 12.2234C58.9747 12.0525 58.091 12.3978 57.2698 12.2086C57.1448 12.1587 57.045 12.0779 56.969 11.9674V11.967Z" fill="#F89494"/>
<path d="M54.0161 9.02093C53.6763 9.17668 53.3364 9.33242 52.9965 9.48774C49.8181 9.68496 47.0403 11.035 44.2973 12.4854C44.0611 12.6919 43.8058 12.7012 43.5356 12.559C43.0317 11.8573 43.4077 11.294 43.8937 10.8336C44.9427 9.83944 46.1357 9.06537 47.582 8.75261C48.4802 8.5228 49.3809 8.31077 50.3173 8.49529C50.7952 8.61549 51.2681 8.75854 51.7304 8.9346C51.7673 8.43139 51.5201 7.91633 51.6832 7.45206C51.9029 6.82696 52.6035 7.03519 53.0751 6.83373C53.8759 6.49135 54.5608 5.94455 55.3413 5.56407C56.0666 5.34188 56.7918 5.11969 57.5638 5.29702C58.2652 5.4206 58.8953 5.87218 59.3814 5.83874C59.0436 5.92381 58.5852 5.47774 58.0443 5.36897C57.4138 5.15482 56.675 5.17302 56.2454 4.53269C56.245 4.44593 56.2441 4.35875 56.2437 4.27199C56.8487 3.80433 57.4231 4.1903 57.9967 4.34816C58.7551 4.55681 59.4447 4.93475 60.147 5.27798C60.4886 5.44515 60.9317 5.64025 61.1569 5.2619C61.5911 4.53184 62.6265 4.44085 62.8427 3.41243C62.9685 2.81357 63.8492 2.83389 64.4632 2.76575C65.7586 3.13056 66.9342 3.77555 68.148 4.33039C68.2088 4.66135 67.9556 4.78831 67.7308 4.83487C66.0203 5.1891 64.5456 6.18282 62.8567 6.59885C62.5011 6.68645 62.1668 6.85997 61.7869 6.85955C59.4124 6.85616 57.2447 7.5951 55.1709 8.68024C54.8132 8.8673 54.4695 9.13732 54.017 9.02135L54.0161 9.02093Z" fill="#F26C6E"/>
<path d="M54.0161 9.02087C56.3754 7.47061 58.9263 6.5116 61.7929 6.55731C62.2181 6.56408 62.6218 6.50694 62.9935 6.32073C64.648 5.49164 66.3805 4.86866 68.1471 4.3299C69.4336 4.20505 70.6861 4.379 71.914 4.76201C72.0903 5.03879 72.2828 5.30669 72.44 5.59406C72.802 6.25682 72.1999 6.58989 71.8838 6.36559C71.3107 5.9593 70.8497 6.32877 70.3509 6.28772C67.8544 6.08161 65.4072 6.57085 62.8185 6.86626C63.935 7.58023 65.267 7.48077 66.2994 8.16723C65.9323 8.68483 65.4352 8.50242 65.0082 8.50496C61.6624 8.52612 58.3888 9.34505 55.0434 9.39288C54.5969 9.39923 54.2319 9.50715 54.0161 9.02044V9.02087Z" fill="#FAC4BF"/>
<path d="M74.5992 31.5726C75.1991 30.6373 76.2791 30.6479 77.1683 30.3601C85.525 27.6549 93.8277 24.7922 102.124 21.9105C102.856 21.6562 103.543 21.2507 104.219 20.861C104.558 20.665 104.733 20.6536 104.83 21.0552C104.791 21.2626 104.752 21.4712 104.713 21.6803C100.922 23.7723 96.7143 24.7652 92.6679 26.1732C87.0121 28.1412 81.3193 30.0038 75.6393 31.9019C75.2403 32.0352 74.6744 32.5228 74.5988 31.5726H74.5992Z" fill="#5B2020"/>
<path d="M83.1428 18.7102C82.3661 18.9709 81.5963 19.2642 80.7415 19.2256C82.1805 15.9084 85.2089 15.8788 88.1753 15.528C86.6229 14.5338 84.858 14.1005 83.0684 13.5795C84.0031 13.2248 84.8193 13.7306 85.6737 13.7284C87.9943 13.7221 90.2933 13.5723 92.5175 12.8663C92.9232 12.7377 93.238 12.7914 93.5758 12.973C94.3839 12.9408 95.1159 12.6018 95.8815 12.3995C96.3502 12.276 96.8116 12.1524 97.2993 12.2688C97.3894 12.3297 97.4795 12.3902 97.5691 12.4512C97.5547 13.1419 96.9518 13.1148 96.5303 13.243C95.5489 13.5422 94.5538 13.7775 93.5932 14.1656C92.6075 14.5639 91.8453 15.2169 91.1014 15.9233C90.5482 16.2051 89.8455 16.0168 89.348 16.4743C88.0181 17.5836 86.2864 17.7787 84.7683 18.4617C84.2661 18.6877 83.7448 19.0322 83.1424 18.7102H83.1428Z" fill="#FA8386"/>
<path d="M104.479 28.1784C102.637 29.9127 100.211 30.4739 97.9404 31.2751C91.137 33.6756 84.3723 36.1904 77.4844 38.3462C76.6262 38.615 75.8865 39.216 74.9412 39.2227C74.86 38.4808 75.2348 38.1731 75.9264 37.9361C83.014 35.5073 90.0897 33.0446 97.1646 30.5785C98.5645 30.0905 99.956 29.575 101.331 29.024C102.36 28.6118 103.417 28.2194 104.184 27.3548C104.547 26.9456 104.504 27.3891 104.598 27.544C104.559 27.7548 104.518 27.9668 104.478 28.1788L104.479 28.1784Z" fill="#572020"/>
<path d="M29.8621 31.7961C27.0312 31.2239 24.3257 30.2242 21.5959 29.3236C15.2221 27.2211 8.75138 25.3987 2.51308 22.8983C1.75427 22.594 1.02562 22.2148 0.282957 21.8703C0.243019 21.6147 0.203082 21.3595 0.16272 21.103C0.285081 20.943 0.0934666 20.3645 0.610103 20.7272C3.88964 23.0316 7.79458 23.8019 11.482 25.0774C17.2534 27.0738 23.0825 28.9034 28.8858 30.8087C29.371 30.9682 30.0201 30.9941 29.8621 31.7961Z" fill="#772223"/>
<path d="M29.4083 38.499C29.1802 38.8516 28.9028 38.6471 28.6427 38.56C20.3969 35.7968 12.1486 33.0408 3.90962 30.2572C2.57851 29.8074 1.31624 29.1882 0.317379 28.1522C0.299109 27.5706 0.280415 26.9883 0.262146 26.4064C0.733747 27.913 1.98625 28.5716 3.31863 29.0405C7.68072 30.5759 12.0581 32.0699 16.441 33.5457C20.5495 34.9287 24.6741 36.2653 28.788 37.6331C29.0111 37.7072 29.2023 37.8777 29.4083 38.0034C29.5345 38.1689 29.5299 38.3344 29.4083 38.4999V38.499Z" fill="#7C2225"/>
<path d="M79.3615 39.9819C80.9611 38.9941 82.8208 38.7008 84.5597 38.0986C88.7578 36.6453 93.0022 35.3244 97.2309 33.9587C98.7949 33.4533 100.339 32.8291 101.942 32.5189C103.598 32.1985 103.995 31.0787 104.28 29.7392C104.348 29.423 104.464 29.117 104.559 28.8064C105.319 31.1409 104.692 32.427 102.19 33.3006C98.9644 34.4272 95.7065 35.4619 92.4597 36.528C89.1372 37.6191 85.8114 38.6996 82.4868 39.7851C81.8822 39.9184 81.3031 40.1389 80.7054 40.2977C80.1883 40.4348 79.7256 40.4445 79.3619 39.9824L79.3615 39.9819Z" fill="#E2806E"/>
<path d="M72.6737 14.9693C71.7479 15.2609 70.8221 15.5525 69.9086 15.8403C70.9275 13.3217 73.0543 12.7423 75.4625 12.7478C76.6899 12.7508 77.9148 12.6484 79.1554 12.8871C79.774 13.006 79.2858 12.6285 79.1478 12.4748C81.0235 10.4404 83.4924 9.6727 86.1177 9.23975C86.854 9.59186 87.5903 9.94356 88.3265 10.2957C88.3257 10.3507 88.3236 10.4053 88.3198 10.4599C87.1187 11.2543 85.7714 11.5916 84.357 11.7194C82.2416 12.4558 80.1198 13.1698 77.8834 13.4605C76.2323 14.2557 74.5341 14.8902 72.6741 14.9693H72.6737Z" fill="#F27779"/>
<path d="M86.1173 9.23972C85.5386 9.76706 84.7722 9.78822 84.0749 10.0028C82.5798 10.4628 81.0877 10.972 79.9686 12.1155C79.6925 12.3978 79.2791 12.0702 79.1478 12.4752C77.6157 11.3943 75.8122 11.0134 74.0519 10.5238C73.82 10.459 73.5587 10.487 73.4095 10.2432C74.532 9.47715 75.8687 9.58169 77.108 9.48011C79.2132 9.30744 81.2623 9.06197 83.1305 7.99927C84.1459 8.36535 85.2399 8.54395 86.1177 9.23972H86.1173Z" fill="#FB9395"/>
<path d="M50.7833 49.636C51.345 49.2377 51.9428 49.4108 52.524 49.5526C53.4595 49.7803 54.3692 49.6669 55.2759 49.4159C55.4029 49.3808 55.6816 49.3791 55.3549 49.1963C55.2576 49.1417 55.1169 49.1641 54.9963 49.1514C54.9886 48.6812 55.3842 48.6685 55.6807 48.5923C57.6135 48.0955 59.4276 47.2956 61.2235 46.4521C64.2197 45.0449 67.3718 44.0254 70.4283 42.7684C70.772 42.6271 71.128 42.5119 71.5104 42.5407C71.9229 42.7502 72.2802 42.8988 72.782 42.5962C73.1134 42.3964 73.6381 42.3824 74.0651 42.6093C74.1033 42.6533 74.1412 42.6977 74.179 42.7426C67.9232 45.0602 61.8817 47.9516 55.4292 49.7388C53.8972 50.1633 52.3243 50.0292 50.7829 49.6364L50.7833 49.636Z" fill="#E0846E"/>
<path d="M83.1305 7.99924C82.8148 8.84272 82.056 9.04544 81.3006 9.2325C78.7102 9.87368 76.0361 9.87537 73.4095 10.2436C71.8299 9.82247 73.7256 9.4657 73.4316 9.06829C74.6374 7.78382 76.3297 7.62342 77.8906 7.16254C78.0427 7.11767 78.219 7.15238 78.3626 7.05334C79.466 7.43974 80.6607 7.11767 81.7713 7.49773C82.2293 7.65432 82.7417 7.65516 83.1305 7.99924Z" fill="#FAC9C4"/>
<path d="M64.4623 2.76575C63.1129 3.24991 62.4331 4.49968 61.4976 5.43499C60.9928 5.93989 60.712 5.92212 60.1754 5.63518C58.9416 4.9758 57.6869 4.3452 56.2437 4.27199C55.7449 3.89278 55.1628 3.80348 54.5587 3.79036C54.3139 3.78486 53.9694 3.76412 53.9532 3.52585C53.9307 3.19447 54.311 3.18177 54.5667 3.10475C56.6877 2.90753 58.8545 3.17669 61.0761 2.45637C60.4541 2.25154 59.9375 2.2181 59.4276 2.13388C59.0707 2.07463 58.5426 2.22276 58.5099 1.59089C60.5926 1.48678 62.5861 1.8317 64.4623 2.7649V2.76575Z" fill="#F8999B"/>
<path d="M78.3626 7.05298C76.8174 7.96417 74.9951 8.20117 73.4316 9.06793C72.4774 9.27361 71.7534 10.1196 70.6976 10.0426C70.3445 9.8475 69.9915 9.65239 69.4731 9.36545C70.8144 9.23594 70.91 7.96756 71.764 7.41652C72.8844 6.69324 73.9206 5.96234 75.3465 6.21881C75.4366 6.23489 75.5678 6.02371 75.68 5.91748C76.5743 6.29584 77.4687 6.67462 78.363 7.0534L78.3626 7.05298Z" fill="#EC686A"/>
<path d="M7.69646 13.2392C7.11864 13.1486 6.54083 13.058 5.96259 12.9675C8.4574 11.3025 11.256 10.5589 14.2054 10.2737C15.0598 11.6652 14.8002 12.1329 13.207 12.5053C11.3877 12.9307 9.51998 12.9019 7.69646 13.2392Z" fill="#F9D5CD"/>
<path d="M43.57 1.34924C43.7663 1.63153 44.1185 1.5016 44.3577 1.63957C44.879 1.93963 44.9861 2.48982 44.4303 2.67688C41.7256 3.58638 39.0443 4.8408 36.0698 3.7908C38.3518 2.31249 40.8874 1.60698 43.57 1.34967V1.34924Z" fill="#FAC5BF"/>
<path d="M31.8802 4.56909C32.5766 5.00205 33.3205 4.8226 34.0309 4.67024C34.4634 4.57756 34.7506 4.57925 34.9371 5.01474C35.1428 5.4951 34.7302 5.57212 34.4647 5.71898C33.106 6.47019 31.6062 6.77322 30.0962 7.01107C29.2439 7.14523 28.3776 7.1994 27.5152 7.25654C26.9577 7.29336 26.6042 7.10756 26.8804 6.45665C28.3594 5.333 30.1582 5.05241 31.8802 4.56909Z" fill="#FACEC6"/>
<path d="M91.1018 15.9241C91.7586 14.0022 93.6438 13.9011 95.1448 13.2595C95.9236 12.9268 96.86 13.0237 97.5695 12.4515C98.2939 12.8104 99.0179 13.1693 99.7423 13.5282C97.1094 14.1795 94.4684 14.8017 91.9537 15.8508C91.7034 15.9554 91.3873 15.9033 91.1018 15.9241Z" fill="#EB6D6E"/>
<path d="M21.4307 7.79102C21.8916 8.21804 22.4554 7.94549 22.9691 8.00686C23.3047 8.04706 23.6922 8.04071 23.77 8.42965C23.8592 8.87488 23.4857 9.10596 23.1335 9.21261C21.3134 9.76406 19.4198 9.82459 17.5431 9.99514C17.1378 10.032 17.0053 9.88003 17.1705 9.49913C18.4991 8.70348 19.9135 8.11943 21.4315 7.79144L21.4307 7.79102Z" fill="#F9D3CD"/>
<path d="M58.5099 1.59169C59.3847 1.98148 60.3619 1.79738 61.2584 2.07586C61.4929 2.14865 61.7844 2.15161 61.778 2.46733C61.7759 2.57398 61.5783 2.74285 61.4458 2.77121C59.1719 3.25918 56.8933 3.70186 54.5663 3.10513C55.436 2.7657 56.299 2.40724 57.1788 2.09702C57.4644 1.99629 57.7397 1.96159 57.7278 1.58069C57.9886 1.5845 58.2491 1.58831 58.5099 1.59169Z" fill="#FACEC9"/>
<path d="M5.01004 13.2582C5.51946 14.348 5.32062 14.9591 4.2882 15.2985C3.5536 15.5402 2.84918 15.9596 2.05043 15.902C1.60305 15.8699 1.17308 15.6612 0.985718 15.1762C1.9782 13.8105 3.56848 13.6894 5.01004 13.2582Z" fill="#FAC8C3"/>
<path d="M79.3615 39.982C80.4351 40.4259 81.437 39.7331 82.4864 39.7852C79.7605 40.8898 76.9865 41.8615 74.1794 42.7422L74.1531 42.7075C74.1561 42.1488 74.5525 41.8335 74.9081 41.4924L74.9102 41.4755C76.4253 41.0705 77.7929 40.2304 79.3611 39.982H79.3615Z" fill="#E0846E"/>
<path d="M54.746 0.545049C53.7196 0.980119 52.6115 1.08889 51.54 1.34197C50.6236 1.16507 49.6379 1.63442 48.7656 1.04699C50.6635 -0.251873 52.6714 -0.248487 54.7465 0.545049H54.746Z" fill="#F7C8C5"/>
<path d="M97.2997 12.2691C96.0264 12.3359 94.8984 13.1646 93.5762 12.9729C94.5776 12.6347 95.5795 12.2962 96.5809 11.958C96.8205 12.0617 97.0601 12.1654 97.3002 12.2691H97.2997Z" fill="#EB6D6E"/>
<path d="M52.2636 27.8499C51.5239 28.3519 50.7816 27.6269 50.0109 27.877C48.8812 28.2435 47.6844 28.4158 46.5704 28.8187C44.084 29.7189 41.6997 29.3308 39.3128 28.4695C38.7516 28.2672 38.1686 27.9058 37.5534 28.3633C37.2764 28.4915 36.9782 28.5677 36.7874 28.2668C36.6247 28.0103 36.7874 27.7547 37.0215 27.6561C38.7635 26.9222 40.4238 25.9619 42.3434 25.7139C42.5103 25.6923 42.6646 25.7706 42.8005 25.8709C42.9794 26.135 43.1447 25.8849 43.3159 25.8574C43.4697 25.727 43.6243 25.719 43.7798 25.8553C45.0345 25.835 46.2836 25.8921 47.5208 26.1185C49.3167 26.1113 51.0136 26.3742 52.2636 27.8503V27.8499Z" fill="#FAC7C2"/>
<path d="M25.1321 19.6661C26.2112 17.7036 28.2217 17.1734 30.1102 16.4556C33.1234 15.5583 36.1212 15.9824 39.1161 16.5567C39.3277 17.2643 39.2448 17.4565 38.3892 17.7485C37.1456 18.173 35.9288 18.6792 34.644 18.9818C34.2038 19.0855 33.784 19.2577 33.3685 19.4359C31.9932 19.722 30.6077 19.8333 29.1985 19.7749C28.1724 19.7321 27.1319 19.6534 26.1182 19.9463C25.7545 19.9755 25.4006 19.9679 25.1321 19.6661Z" fill="#FBC5C0"/>
<path d="M68.6816 16.1907C69.0963 16.2004 69.4914 16.2723 69.8955 16.3934C70.6042 16.6054 70.4079 17.1412 70.4155 17.6051C70.424 18.1218 70.0552 18.1798 69.6512 18.1823C67.4712 18.1963 65.2836 18.1282 63.1805 18.8718C62.8376 18.9932 62.493 18.5577 62.1213 18.7939C62.1328 18.9022 62.1149 18.9937 62.1527 19.0453C62.3826 19.361 63.2472 18.9691 63.0335 19.5366C62.8355 20.0623 62.5258 20.7593 61.7453 20.9041C59.3856 21.3421 56.9991 21.409 54.6105 21.4902C54.1321 21.5063 54.0463 21.2748 54.0081 20.9151C54.1372 20.3039 54.6662 20.105 55.1331 19.8583C56.7229 19.0178 58.4373 18.6098 60.2221 18.5357C60.7409 18.5141 61.1832 18.3521 61.6386 18.1684C63.4205 17.4218 65.137 16.5055 67.0417 16.0768C67.5931 15.9528 68.1659 15.7264 68.6821 16.1902L68.6816 16.1907Z" fill="#FAD1C6"/>
<path d="M50.5178 8.76451C49.5066 8.61934 48.5315 8.94395 47.5357 8.99262C46.9251 8.69552 46.3273 8.84365 45.7529 9.08277C42.6862 10.3609 39.5257 10.2542 36.3349 9.74087C36.0894 9.58767 35.8442 9.43404 35.5986 9.28083C38.2247 7.7856 41.0841 7.00095 44.0454 6.52652C44.2204 6.37416 44.446 6.37416 44.6304 6.43172C46.493 7.01365 48.4691 7.17997 50.2756 7.96377C50.5429 8.07974 50.8615 8.19401 50.9567 8.46275C51.1219 8.92999 50.8607 8.94268 50.5178 8.76451Z" fill="#FAC1BA"/>
<path d="M25.132 19.6662C25.4622 19.6692 25.7923 19.6717 26.1224 19.6747C28.1558 19.5651 30.1926 19.8833 32.2277 19.6129C32.6343 19.5587 33.0192 19.4317 33.4212 19.3771C33.4263 19.3763 33.4322 19.2967 33.4178 19.262C33.4029 19.2273 33.3634 19.2028 33.3345 19.1736C34.9702 18.5976 36.5962 17.9911 38.2485 17.4659C38.7095 17.319 39.0736 17.1624 39.283 16.7257C40.6218 16.4997 41.3895 17.7905 42.6042 17.975C43.0248 18.0389 42.8583 18.5108 42.4453 18.6348C41.8743 18.8066 41.2761 18.8045 40.7488 18.5303C40.0678 18.1761 39.4458 18.3144 38.8692 18.6776C37.4901 19.5469 36.0061 20.3408 35.7176 22.1835C36.2707 22.597 37.0559 22.3951 37.5768 22.8835C37.5785 22.9648 37.5781 23.0465 37.5751 23.1277C37.6622 23.2615 37.6443 23.3791 37.5215 23.4811C36.5214 23.6982 35.5404 23.4892 34.5573 23.3491C33.6876 21.9863 32.4334 21.3163 30.8142 21.3066C28.9359 20.8343 27.0614 20.3671 25.0951 20.4966C24.6447 20.5262 24.1833 20.4454 23.8791 20.0298C23.8065 19.8926 23.8222 19.7657 23.925 19.6497C24.3273 19.6556 24.7297 19.6611 25.132 19.6671V19.6662Z" fill="#F4988F"/>
<path d="M57.2468 11.9893C58.1127 11.8437 59.0661 12.3258 59.8572 11.6309C59.8848 11.6067 59.9554 11.5873 59.9736 11.6029C61.374 12.815 61.7194 11.17 62.3915 10.6477C64.0103 9.38992 65.8482 9.3514 67.6977 9.60279C68.4191 9.70098 69.316 9.49995 69.8942 10.2182L69.9384 10.2567C67.1844 11.0163 64.6446 12.471 61.7457 12.76C59.4812 13.0783 57.376 13.857 55.3341 14.8647C54.6127 15.2206 53.9303 15.9219 52.9795 15.4728C52.8724 14.7102 53.5 14.4254 53.9537 14.069C54.9776 13.2658 56.1299 12.6525 57.2468 11.9889V11.9893Z" fill="#F16B6C"/>
<path d="M49.3018 22.3922C50.853 22.2648 52.391 21.9596 53.9592 22.379C55.0111 22.6605 55.9832 23.0317 56.8908 23.7956C56.1706 24.4113 55.3493 24.0575 54.6309 24.1921C52.4989 24.5912 50.3623 24.912 48.1636 24.7614C47.4902 24.7152 46.7858 25.199 46.0877 25.4152C45.4508 25.6124 44.7689 25.9878 44.2973 25.127C44.1784 24.4753 44.7315 24.2967 45.116 24.0503C46.3991 23.2289 47.7846 22.6402 49.3014 22.3922H49.3018Z" fill="#FAC7C2"/>
<path d="M35.3786 22.4217C34.8887 21.7835 35.4563 21.3099 35.7499 20.9426C36.7284 19.7178 37.8254 18.6208 39.3948 18.0867C39.8698 17.925 40.2072 17.7904 40.6218 18.1214C41.2332 18.6098 41.9109 18.4244 42.631 18.2048C41.2149 18.3194 40.5704 16.845 39.2831 16.7248C36.2453 15.9558 33.1816 16.0832 30.1102 16.4556C31.5964 15.6896 31.4749 15.0861 29.3684 13.7186C30.5491 13.9645 31.6053 14.1766 32.2082 14.8364C33.3889 16.1289 34.8237 15.93 36.2661 15.9477C38.6679 15.9774 40.9031 16.5923 42.894 17.933C43.2067 18.1434 44.1576 18.4485 43.2866 19.1617C41.3462 19.8105 39.3493 20.3018 37.5777 21.3954C36.8932 21.8178 36.2933 22.4695 35.3794 22.4213L35.3786 22.4217Z" fill="#F57277"/>
<path d="M52.2635 27.85C50.8198 26.8999 49.2542 26.2811 47.5208 26.1182C48.0349 25.6298 48.5876 25.8867 49.1391 26.0293C50.5331 26.3895 51.9678 26.6506 53.0393 27.7425C53.5245 28.2372 53.8542 27.7814 54.192 27.5199C55.0876 26.8262 56.0924 26.513 57.223 26.5981C56.3452 27.3844 55.3973 28.0493 54.2217 28.3215C53.9375 28.9736 53.1664 28.688 52.7475 29.0811C51.1865 29.8683 49.6132 30.6297 48.0055 31.3178C47.7277 31.342 47.4226 31.2886 47.1821 31.6653C47.6495 31.8765 48.1045 32.0822 48.56 32.2879C48.4661 32.3767 48.3722 32.4656 48.2783 32.5545C45.2669 31.4647 42.2554 30.3749 39.2444 29.2851C40.9031 29.4189 42.3884 30.1193 43.9468 30.5726C44.4154 30.7088 44.9924 31.1617 45.2108 30.2556C45.2197 30.2187 45.2477 30.1866 45.2673 30.1523C46.838 31.0863 47.5118 29.0278 48.973 29.0579C50.0321 29.0794 51.1984 28.3236 52.3901 28.1598C52.3481 28.0565 52.3065 27.9528 52.2644 27.8496L52.2635 27.85Z" fill="#F77E7C"/>
<path d="M35.3785 22.4217C37.3635 21.1534 39.3362 19.8706 41.6891 19.3335C42.2248 19.2112 42.7525 19.2036 43.2861 19.1621C44.067 19.182 44.8063 19.1807 45.3433 19.9662C45.8064 20.643 45.7104 20.9231 44.9529 21.1572C43.1774 21.7061 41.3483 21.8656 39.5121 21.8826C38.6402 21.8906 37.9953 22.1111 37.5768 22.8826C36.8137 22.8729 36.0566 22.834 35.3785 22.4213V22.4217Z" fill="#FBCFC7"/>
<path d="M36.3345 9.74128C39.2189 9.70065 42.1343 10.0308 44.9363 9.01249C45.5549 8.78776 46.188 8.60324 46.8074 8.38063C47.426 8.15844 47.5339 8.50463 47.5352 8.99303C46.3843 9.60839 45.133 10.0451 44.1609 10.9762C43.714 11.4041 43.4578 11.8629 43.5457 12.485C43.4994 12.5997 43.4535 12.7525 43.3439 12.7817C41.2583 13.3382 39.2431 14.1508 37.1005 14.5012C36.5881 14.7226 36.0753 14.9443 35.5629 15.1657C37.6401 13.5519 40.0703 12.8139 42.9199 12.2662C40.6936 10.9534 38.6908 9.96982 36.3183 9.99394C36.2482 9.99479 36.1259 9.96389 36.1165 9.92665C36.074 9.75144 36.238 9.77894 36.3345 9.74128Z" fill="#FA9090"/>
<path d="M54.2217 28.3214C55.1356 27.5977 56.1285 27.0103 57.223 26.598C59.1493 25.9619 61.1075 26.1088 63.0636 26.3945C63.4949 26.4575 64.0578 26.5608 64.0867 27.1059C64.1135 27.6074 63.5662 27.7196 63.1928 27.8046C60.4167 28.4399 57.6037 28.7298 54.7545 28.5762C54.5727 28.5664 54.3989 28.4094 54.2217 28.321V28.3214Z" fill="#FBCEC7"/>
<path d="M63.5012 25.4126C62.9205 25.6699 62.3516 25.9183 61.9127 25.1713C61.5235 24.5094 61.962 24.0752 62.3295 23.6469C63.2162 22.6138 64.4742 22.508 65.7076 22.4043C66.5641 22.3324 67.4499 22.5152 68.3039 22.0306C68.0197 21.3649 67.3654 21.0577 66.7723 20.6095C68.0571 20.5405 69.881 22.0467 69.9052 23.1137C67.8107 23.9906 65.7526 24.9682 63.5017 25.4126H63.5012Z" fill="#F87C7D"/>
<path d="M37.101 14.5008C39.1259 13.4376 41.3726 13.0762 43.5462 12.4841C43.7969 12.4841 44.0471 12.485 44.2978 12.4854C44.4936 12.843 44.6194 13.2421 45.0175 13.4647C45.3327 13.6408 45.7653 13.8228 45.6459 14.265C45.5567 14.5947 45.1335 14.6201 44.8276 14.7378C43.6035 15.2088 42.329 15.2097 41.0429 15.2228C39.9748 15.2334 38.9016 15.0742 37.8343 15.387C37.0598 15.6138 37.0606 15.034 37.1014 14.5008H37.101Z" fill="#FBD0C8"/>
<path d="M71.4433 22.4167C71.2279 22.5208 71.0129 22.6254 70.7894 22.7333C71.0019 20.5956 71.4229 20.205 73.3837 19.6057C74.9676 19.122 76.6487 19.3827 78.3503 18.8371C77.0116 17.8405 75.6801 17.1443 74.1756 16.7693C75.9477 17.0423 77.787 17.121 79.1329 18.54C79.3666 18.7864 79.8497 18.9662 79.6853 19.403C79.5472 19.7699 79.11 19.6176 78.8003 19.687C78.649 19.7208 78.5131 19.8232 78.3703 19.8948C76.0739 20.7696 73.9075 21.9994 71.4433 22.4167Z" fill="#F77B7D"/>
<path d="M23.886 12.9733C24.5934 12.7888 25.3292 12.6437 25.5897 13.5752C25.8323 14.4419 25.4125 14.9591 24.5475 15.2054C22.9215 15.6688 21.2743 15.9448 19.5808 15.9524C18.9295 15.9553 18.2548 15.825 17.6511 16.2055C17.2033 16.3786 16.6556 16.489 16.4691 15.9803C16.2528 15.3908 16.9058 15.2816 17.2844 15.1098C18.9796 14.3408 20.7033 13.6382 22.4737 13.058C22.9262 12.9099 23.3931 12.6161 23.8855 12.9733H23.886Z" fill="#FAD3C7"/>
<path d="M6.01398 18.4274C4.54182 18.4646 3.23791 17.9128 1.92975 17.2728C3.32458 17.7583 4.5329 17.3808 5.66644 16.597C7.0651 15.6299 8.63923 15.0272 10.2138 14.4263C11.0223 14.7268 11.8427 15.0086 12.3899 15.9012C10.1135 16.4675 7.97091 17.2254 6.01356 18.4274H6.01398Z" fill="#F36A6E"/>
<path d="M71.4432 22.4166C73.7354 21.5291 75.8771 20.2324 78.3707 19.8947C79.0891 20.0733 79.8101 20.243 80.5252 20.4347C80.9211 20.5409 81.5091 20.6552 81.4815 21.0716C81.4475 21.5841 80.792 21.6218 80.3905 21.6231C78.4344 21.6299 76.5646 22.1322 74.6752 22.5216C73.8701 22.6875 73.0896 22.9736 72.2437 22.8919C71.8868 22.8576 71.5996 22.7603 71.4432 22.4166Z" fill="#FAD2CC"/>
<path d="M34.092 10.0007C34.3635 10.0371 34.9018 10.1767 34.7553 10.3016C34.2017 10.7735 34.8092 11.7223 33.9302 12.0127C33.281 12.2268 32.6296 12.1925 31.9728 12.2425C30.4416 12.3597 28.8743 11.8954 27.3843 12.8523C26.8315 13.2074 25.887 12.763 25.1478 12.5277C27.4471 10.8611 30.0503 10.0921 32.8625 9.98502C33.2665 9.96978 33.6837 9.92196 34.092 10.0007Z" fill="#F7D6CB"/>
<path d="M57.2468 11.9894C57.2137 12.4177 56.9116 12.551 56.5696 12.7537C55.2729 13.5215 53.8708 14.1694 52.9795 15.4734C51.2944 14.9342 49.869 13.8736 47.9635 13.0982C50.7166 13.0098 53.1388 12.7635 55.5074 12.1147C55.9731 11.9873 56.4808 12.0127 56.9689 11.9674C57.0616 11.9746 57.1542 11.9822 57.2468 11.9898V11.9894Z" fill="#FC898A"/>
<path d="M72.6737 14.9693C74.3731 14.3399 76.076 13.7208 77.8834 13.4605C78.4599 13.4664 79.0424 13.4237 79.6117 13.4918C80.2269 13.5654 80.557 14.0754 80.5575 14.604C80.5579 15.0763 80.02 15.1559 79.607 15.1957C77.775 15.3722 75.9426 15.5444 74.1089 15.6981C73.7702 15.7264 73.4439 15.7717 73.178 15.9731C72.8891 16.192 72.6295 16.5716 72.2462 16.2013C71.8503 15.8182 72.3053 15.5652 72.4727 15.2778C72.5343 15.172 72.6065 15.0721 72.6737 14.9693Z" fill="#F9D2C9"/>
<path d="M61.7457 12.7605C64.2065 12.1215 66.4243 10.7541 68.9684 10.366C69.2896 10.3169 69.6151 10.2928 69.9384 10.2572C70.119 10.3363 70.294 10.4354 70.4818 10.4895C70.7711 10.5733 71.4263 10.5065 71.2755 10.7515C70.987 11.2196 71.3621 12.0614 70.6241 12.185C67.7516 12.6645 64.8434 12.7745 61.9386 12.9027C61.8766 12.9053 61.8103 12.8101 61.7457 12.7605Z" fill="#F8D1C8"/>
<path d="M37.545 23.4172C37.5552 23.3207 37.5649 23.2237 37.5751 23.1268C39.6897 23.3372 41.5361 24.0537 42.8005 25.8706C40.8576 26.1931 39.1548 27.1741 37.3402 27.8483C37.1719 27.9109 36.852 27.8927 36.996 28.1813C37.0572 28.3037 37.3601 28.3062 37.5535 28.3633C36.4046 28.8966 35.5914 27.8195 34.3597 27.8834C36.0626 26.8753 37.9069 26.6925 39.1815 25.3868C40.2666 24.2754 40.2488 24.1663 38.7762 23.6834C38.2948 23.9191 37.8198 24.1256 37.545 23.4167V23.4172Z" fill="#F36C6D"/>
<path d="M23.9246 19.6488C23.9067 19.733 23.8889 19.8172 23.8711 19.9015C21.8054 20.5799 19.9015 21.759 17.6608 21.8957C17.1429 22.2859 16.6539 22.0328 16.1627 21.8301C17.0571 20.9663 18.1447 20.3687 19.2056 19.7626C20.4003 19.08 20.6982 18.2907 19.8981 17.1467C21.4718 17.6106 22.9279 18.2636 23.9246 19.6488Z" fill="#F16364"/>
<path d="M83.1428 18.7101C85.2115 17.9648 87.2797 17.2195 89.3484 16.4742C89.4869 17.093 89.9109 16.9982 90.2967 16.7989C90.5924 16.6461 90.8265 16.4336 91.1978 16.6067C91.6745 16.8289 92.5302 16.5927 92.5052 17.4108C92.4818 18.1663 91.7132 17.7909 91.3011 17.8899C89.1113 18.4177 86.9088 18.8984 84.6995 19.339C84.1068 19.4571 83.3268 19.7301 83.1428 18.7097V18.7101Z" fill="#F9CECA"/>
<path d="M23.886 12.9733C21.3576 13.6805 18.9724 14.75 16.5545 15.786C16.8132 16.3388 17.2848 16.1225 17.6515 16.205C17.1263 16.6841 16.5783 16.3417 16.0217 16.2808C15.1698 16.1877 14.3082 16.1847 13.2371 16.1331C14.8516 15.1148 16.4614 14.5198 18.0547 13.9201C19.6551 13.3174 21.3053 12.8455 22.9542 12.3093C22.6772 11.5856 21.7871 11.6368 21.4137 11.0299C22.3624 11.512 23.6744 11.5086 23.886 12.9733Z" fill="#F88386"/>
<path d="M68.6816 16.1907C66.5301 16.2407 64.6849 17.2682 62.7569 18.0317C62.4174 18.1663 62.0784 18.3022 61.7393 18.4376C61.4271 18.5138 61.0464 18.7923 60.9695 18.1777C61.6403 15.7844 63.7179 15.7908 65.6133 15.437C66.3636 15.2969 67.1636 15.8314 67.922 15.1153C68.1319 14.9173 68.9756 15.4112 68.6816 16.1912V16.1907Z" fill="#FA8085"/>
<path d="M84.3566 11.7193C85.6286 11.1463 86.9547 10.743 88.3197 10.4598C89.0076 10.583 89.7222 10.3714 90.4024 10.641C90.7538 10.7802 91.1396 10.8555 91.0618 11.3655C91.0036 11.7477 90.7563 11.9161 90.3905 11.9733C88.813 12.2187 87.2397 12.4913 85.6592 12.7135C84.9323 12.8159 84.3073 12.6775 84.357 11.7189L84.3566 11.7193Z" fill="#FAD1CA"/>
<path d="M52.5045 15.9473C53.2883 16.2334 53.4128 16.7916 52.6944 17.134C50.5752 18.1451 48.2664 18.545 45.962 18.9124C45.7177 18.9513 45.4644 18.9103 45.2949 18.6826C45.5311 18.0266 46.1583 17.7938 46.6936 17.5462C48.5354 16.6943 50.2879 15.4636 52.5045 15.9469V15.9473Z" fill="#F8D5CD"/>
<path d="M48.0056 31.3178C49.4424 30.2695 50.9269 29.3214 52.7475 29.0811C53.5127 29.1272 54.3182 28.9444 54.9725 29.561C55.2589 29.8306 55.7967 29.977 55.6038 30.4734C55.4224 30.9407 54.9228 30.7926 54.5136 30.7947C53.3529 30.8006 52.0685 30.5348 51.0659 30.9432C50.0041 31.3762 49.0341 31.2975 48.0047 31.3173L48.0056 31.3178Z" fill="#F9D1CA"/>
<path d="M63.5013 25.4126C65.5848 24.5057 67.6148 23.4497 69.9049 23.1141C70.5902 23.3486 71.7845 23.0727 71.7819 24.0076C71.7802 24.6864 70.6097 24.4155 69.9826 24.5827C68.5219 24.9721 67.0107 25.1697 65.5245 25.4689C64.8396 25.6069 64.1662 25.788 63.5013 25.4126Z" fill="#FAD2CD"/>
<path d="M60.969 18.1777C61.1543 18.4739 61.4593 18.4181 61.7389 18.4375C60.1771 18.895 58.5082 18.8248 56.9715 19.4363C55.9378 19.8477 54.8943 20.2201 54.0076 20.9155C51.8807 22.5834 50.6006 20.4368 48.9929 19.8066C50.0037 19.8193 50.751 20.458 51.5714 20.9265C51.8688 21.0962 52.1157 21.4885 52.5049 21.0327C54.3454 18.8777 56.8194 18.3292 59.4769 18.4003C59.6231 17.9821 59.0975 17.8581 59.1464 17.5031C59.8775 17.5568 60.0534 18.829 60.969 18.1777Z" fill="#F88284"/>
<path d="M52.5045 15.9474C50.4146 15.8682 48.7168 16.983 46.92 17.7837C46.3567 18.0347 45.8354 18.3805 45.2949 18.6827C45.0213 18.7411 44.7473 18.799 44.4588 18.8604C44.9007 16.4438 49.5134 14.795 52.5045 15.9474Z" fill="#F98586"/>
<path d="M34.092 10.0007C33.2194 10.5229 32.2328 10.123 31.3058 10.3566C29.181 10.8916 27.1621 11.6965 25.1478 12.5277C26.1594 10.6668 28.8326 9.34047 30.784 9.68667C31.8751 9.88008 33.0464 9.28249 34.092 10.0011V10.0007Z" fill="#F88386"/>
<path d="M49.3019 22.3921C47.975 23.0164 46.635 23.6161 45.3289 24.2806C44.944 24.4765 44.52 24.6995 44.2978 25.1266C43.9562 25.2501 43.8368 25.5303 43.7803 25.8549C43.6256 25.8558 43.471 25.8566 43.3163 25.857C44.2706 22.9174 46.7076 22.5195 49.3023 22.3917L49.3019 22.3921Z" fill="#F36C6D"/>
<path d="M89.5693 21.3624C89.8149 21.6697 89.4958 21.6989 89.3484 21.7476C86.4703 22.6951 83.5889 23.6326 80.7079 24.57C80.4942 24.6394 80.3051 24.6043 80.17 24.4066C83.3034 23.3918 86.4363 22.3773 89.5697 21.3624H89.5693Z" fill="#D85750"/>
<path d="M59.7544 31.4959C59.0721 32.0427 58.255 32.2852 57.4316 32.5146C57.4304 32.3572 57.4074 32.066 57.4316 32.0622C58.7028 31.8548 58.6021 31.1091 57.9759 30.0363C58.9395 30.3575 59.4952 30.7435 59.754 31.4959H59.7544Z" fill="#F4988F"/>
<path d="M38.5752 4.78956C37.8122 4.9288 37.1332 4.49923 36.4008 4.43405C37.1672 4.26942 37.9112 4.2508 38.5688 4.7976L38.5756 4.78956H38.5752Z" fill="#F5787A"/>
<path d="M32.099 42.223C31.1856 42.2158 30.3545 41.947 29.5974 41.4421C29.6029 41.3719 29.6102 41.302 29.6187 41.2322C29.9407 40.018 29.5813 38.7818 29.7359 37.5621C29.7699 37.2937 29.673 36.9894 29.9913 36.7359C30.6579 37.463 30.524 38.279 30.3329 39.0586C30.23 39.478 30.3286 39.2473 30.5185 39.1965C30.8363 39.1119 30.9485 39.3341 30.9651 39.6176C30.9897 40.048 30.9846 40.4755 30.8508 40.8915C31.0203 40.288 31.053 39.6841 30.8678 39.0759C30.7174 38.582 30.6575 38.0111 31.0271 37.664C31.6682 37.0622 31.5879 36.3631 31.3598 35.724C30.8707 34.3524 31.002 32.9536 31.0165 31.5595C31.022 31.0246 30.9077 30.2547 31.7515 30.2378C32.6042 30.2209 32.4024 31.022 32.5485 31.5337C32.5642 31.6209 32.5795 31.7081 32.5953 31.7953C32.8098 32.4525 33.3273 32.7517 33.9468 32.9329C39.0995 34.4362 44.0972 36.4041 49.222 37.992C50.6079 38.4216 52.0448 38.582 53.4906 38.6662C54.0119 38.6967 54.5799 38.5613 54.9988 39.0272C54.6067 40.2021 54.3471 41.4641 54.6573 42.6233C55.0558 44.1114 55.0864 44.3166 53.4944 44.8478C53.9707 45.1263 54.5651 44.7496 54.9971 45.1491C53.6669 45.894 52.2546 45.6193 50.9167 45.3142C48.0043 44.6501 45.2295 43.5248 42.4207 42.5273C39.4539 41.4734 36.4382 40.5623 33.4883 39.4589C33.1429 39.3298 32.5541 38.9151 32.6688 39.8487C32.4873 40.2165 32.1993 40.2271 31.8675 40.0891C31.6295 39.7361 31.7625 39.3709 31.7523 39.1089C31.5034 39.5817 32.0081 40.1987 31.7477 40.7777C31.7443 40.7853 31.729 40.8682 31.7583 40.8327C31.8428 40.7303 31.9337 40.6943 32.0616 40.7188C32.5175 41.211 32.5128 41.7121 32.1007 42.223H32.099Z" fill="#FC7E7F"/>
<path d="M32.099 42.223C32.0158 41.7231 32.2486 41.1759 31.873 40.7197C31.6703 40.4865 31.6716 40.2529 31.8721 40.0193C32.1249 39.9884 32.413 40.0557 32.5762 39.7717C33.1782 39.4674 33.7097 39.8102 34.242 39.9829C39.0112 41.5276 43.751 43.1591 48.4593 44.8766C51.9649 46.1551 55.4186 46.1259 58.9089 44.833C62.6384 43.4512 66.3083 41.9157 70.0552 40.5805C70.6501 40.3684 71.2389 39.9274 71.9297 40.3181C72.3393 40.8204 72.0993 41.4244 72.1927 41.9762C72.4515 42.5323 72.101 42.6496 71.6638 42.7042C67.4007 44.2392 63.1716 45.8614 59.0631 47.7756C57.7533 48.3859 56.3499 48.6872 54.9972 49.1515C51.5222 49.4643 48.4389 48.0541 45.2864 46.9558C41.2647 45.5546 37.2467 44.1427 33.2304 42.727C32.8425 42.5903 32.4759 42.3923 32.0995 42.223H32.099Z" fill="#EE4C54"/>
<path d="M54.9971 39.0267C51.1653 39.2544 47.6827 37.8811 44.1588 36.6893C40.5585 35.4712 36.9595 34.2494 33.3422 33.083C32.6012 32.8443 32.2579 32.5646 32.594 31.7952C36.8184 33.2172 41.0556 34.6032 45.263 36.0743C47.9189 37.0029 50.562 37.9238 53.4141 38.0076C54.0416 38.0262 54.6538 37.9623 55.2448 37.7414C57.7188 37.3677 59.991 36.3613 62.3095 35.503C65.4072 34.3569 68.4866 33.1579 71.6829 32.2984C71.9637 32.8651 71.9641 33.2815 71.2206 33.5024C66.918 34.781 62.7798 36.5166 58.5609 38.0288C57.4027 38.4439 56.1872 38.6987 54.9976 39.0271L54.9971 39.0267Z" fill="#6F2322"/>
<path d="M71.9293 40.3176C68.0669 41.5403 64.2987 43.0326 60.5799 44.6103C55.9667 46.5673 51.5073 46.5127 46.8601 44.7221C42.1611 42.9115 37.3427 41.4091 32.5762 39.7717C31.9159 39.6375 32.0366 39.1707 32.1211 38.6167C35.9857 39.9549 39.8159 41.2872 43.6507 42.6072C45.7546 43.3314 47.8654 44.0352 49.974 44.7466C51.6135 45.2998 53.2947 45.3493 54.9959 45.1491C58.374 44.6061 61.4292 43.1028 64.5987 41.9415C67.1016 41.0244 69.5934 40.0772 72.1137 39.1343C72.2722 39.6155 72.3007 39.9998 71.9298 40.3176H71.9293Z" fill="#692525"/>
<path d="M71.6629 42.7041C71.8422 42.4633 72.228 42.3719 72.1919 41.9762C72.9872 41.7549 74.0664 42.3689 74.5358 41.1869C74.6599 41.2889 74.7844 41.3905 74.9085 41.4925C74.894 42.0439 74.5295 42.3795 74.153 42.7075C73.3233 42.581 72.4922 43.2738 71.6629 42.7041Z" fill="#E2806E"/>
<path d="M92.2859 28.6396C92.6542 28.671 92.7855 28.9245 92.7707 29.2203C92.7469 29.7028 92.4048 29.9415 91.9638 29.9482C91.6456 29.9533 91.4328 29.6605 91.4442 29.3765C91.4646 28.8838 91.9265 28.7979 92.2859 28.6396Z" fill="#934042"/>
<path d="M102.077 25.3529C102.527 25.3749 102.778 25.5865 102.753 25.9535C102.726 26.3475 102.479 26.6535 102.035 26.5752C101.656 26.5083 101.345 26.2577 101.409 25.8311C101.465 25.46 101.793 25.3546 102.078 25.3529H102.077Z" fill="#8B3236"/>
<path d="M87.0261 31.1109C86.8935 31.5274 86.6543 31.8346 86.1734 31.8202C85.8326 31.8101 85.6342 31.5836 85.7047 31.2586C85.7884 30.8705 86.0986 30.6361 86.4835 30.5878C86.8259 30.5446 86.9844 30.7833 87.0261 31.1109Z" fill="#8F4743"/>
<path d="M57.2596 41.6257C57.2523 42.1073 56.9647 42.3388 56.584 42.4129C56.2016 42.4874 55.9136 42.2462 55.903 41.8813C55.8906 41.442 56.2484 41.2689 56.6431 41.2241C56.9655 41.1877 57.2001 41.3108 57.2596 41.6257Z" fill="#7C3531"/>
<path d="M99.4839 27.4898C99.4194 27.9341 99.0514 28.0315 98.6886 28.1013C98.3793 28.161 98.0713 28.1153 98.081 27.7039C98.0917 27.2405 98.4609 27.0831 98.8343 27.0179C99.1542 26.962 99.3756 27.1546 99.4839 27.4893V27.4898Z" fill="#6B2E2C"/>
<path d="M81.3834 33.1762C81.3563 33.5605 81.1298 33.7683 80.764 33.803C80.4165 33.8364 80.2189 33.5969 80.1823 33.301C80.1254 32.8389 80.4951 32.645 80.8536 32.6086C81.1697 32.5765 81.3295 32.8668 81.383 33.1762H81.3834Z" fill="#983D3C"/>
<path d="M76.7345 34.58C76.7197 35.0654 76.2706 35.0815 75.9757 35.2195C75.7093 35.3439 75.4774 35.1336 75.4519 34.8805C75.3975 34.3392 75.9371 34.2833 76.2532 34.1183C76.4452 34.018 76.633 34.3409 76.7345 34.5804V34.58Z" fill="#8F3A38"/>
<path d="M61.8473 39.3599C62.1162 39.4674 62.2564 39.6493 62.2156 39.9371C62.1706 40.2571 62.0087 40.4755 61.6625 40.4932C61.3489 40.5093 61.2006 40.3303 61.2291 40.0357C61.2648 39.6637 61.5159 39.4644 61.8473 39.3599Z" fill="#763530"/>
<path d="M32.5472 31.5332C32.4487 31.2704 32.3845 30.9873 32.2418 30.7507C32.1134 30.5382 31.8653 30.4011 31.6074 30.4494C31.3538 30.4968 31.3406 30.7499 31.3623 30.9492C31.522 32.4406 31.0292 33.9595 31.7183 35.448C31.9894 36.0337 32.0986 37.2429 31.7918 37.4503C30.4522 38.3564 31.3614 39.4174 31.3474 40.4005C31.3402 40.9063 30.9234 41.1217 30.688 41.5542C30.5011 40.7675 30.6685 40.0852 30.7467 39.3933C30.1115 39.4309 30.5839 40.0903 30.0877 40.2465V37.052C29.6118 38.4245 30.202 39.8817 29.6186 41.2321C29.5133 40.3239 29.8158 39.3844 29.4088 38.499C29.4088 38.3335 29.4088 38.168 29.4088 38.003C29.5583 36.812 29.7533 35.6249 29.8421 34.4297C29.908 33.5452 29.8323 32.6505 30.0669 31.78C30.145 31.3847 30.2253 30.9898 30.3022 30.5941C30.4357 29.9085 30.4947 29.1285 31.5331 29.3769C32.4083 29.5864 32.891 30.0799 32.6033 31.0512C32.5579 31.2044 32.5651 31.3728 32.5481 31.5341L32.5472 31.5332Z" fill="#F59B91"/>
<path d="M60.7231 32.3124C60.3989 32.3124 60.0747 32.3124 59.3784 32.3124C60.4422 31.8634 61.1679 31.5595 61.891 31.2505C62.2594 31.0931 62.6129 30.9547 62.7042 31.5455C62.0435 31.8012 61.3833 32.0568 60.7231 32.3128V32.3124Z" fill="#F4988F"/>
<path d="M5.2471 26.9586C5.64987 27.0445 5.90224 27.2875 5.93198 27.695C5.96002 28.0793 5.73697 28.3413 5.35714 28.3045C4.97306 28.2672 4.68543 28.0353 4.68585 27.5871C4.68628 27.2109 4.83583 26.9692 5.2471 26.9586Z" fill="#7A3D36"/>
<path d="M27.81 34.3109C27.8338 34.7261 27.6133 34.8348 27.2721 34.8154C26.9152 34.795 26.608 34.7015 26.5855 34.2787C26.5681 33.9503 26.7457 33.7044 27.0703 33.6794C27.5109 33.6456 27.7263 33.938 27.81 34.3104V34.3109Z" fill="#75312A"/>
<path d="M22.3449 32.6138C22.2744 32.968 22.0607 33.1115 21.7318 33.0929C21.3554 33.0717 21.1073 32.9092 21.1392 32.4927C21.1676 32.1178 21.3503 31.8516 21.759 31.9493C22.0853 32.0272 22.3313 32.2502 22.3449 32.6138Z" fill="#732E26"/>
<path d="M10.8379 29.5835C10.5613 29.5619 10.2346 29.4121 10.2325 28.966C10.2308 28.6283 10.5172 28.4586 10.812 28.4865C11.129 28.5165 11.4463 28.6486 11.4587 29.0659C11.4688 29.4066 11.3227 29.5979 10.8379 29.5835Z" fill="#7A2B26"/>
<path d="M16.1623 30.1138C16.5371 30.1578 16.7869 30.3791 16.8472 30.7126C16.9054 31.0338 16.6875 31.2797 16.3565 31.2467C16.0489 31.2158 15.689 31.1248 15.6809 30.6995C15.675 30.3838 15.8356 30.1688 16.1623 30.1142V30.1138Z" fill="#6A2C24"/>
<path d="M2.491 26.7551C2.07761 26.6531 1.75216 26.4652 1.67824 26.0635C1.62088 25.7516 1.89704 25.6378 2.14771 25.6433C2.50757 25.6513 2.79138 25.857 2.84832 26.2146C2.88655 26.4546 2.75187 26.6844 2.491 26.7551Z" fill="#742B28"/>
<path d="M17.6613 21.8957C19.7469 21.2795 21.6202 20.006 23.8715 19.9015C24.4379 20.2506 25.0718 20.1757 25.6819 20.147C27.5712 20.0581 29.3561 20.4834 31.0976 21.1585C31.4749 21.073 31.7944 21.191 32.1589 21.4797C31.9206 21.927 31.5917 22.0722 31.1104 21.908C30.428 21.6507 29.8158 21.6934 29.1029 21.9952C26.4649 23.1103 23.7543 23.5484 20.9153 22.6727C19.8561 22.346 18.6299 22.6533 17.6613 21.8957Z" fill="#FBB3AF"/>
<path d="M37.5449 23.4172C37.8882 23.8141 38.3764 23.5475 38.7766 23.6838C37.8317 24.8239 36.4628 25.1329 35.1292 25.383C32.8162 25.8172 30.4862 26.4114 28.1231 25.6183C28.0675 25.4406 28.1146 25.2666 28.2769 25.2053C29.8553 24.6098 31.2072 23.5479 32.8141 23.0202C33.3154 22.8555 33.8486 22.6905 34.3279 23.1146C35.4032 23.1857 36.4964 23.0667 37.5449 23.4167V23.4172Z" fill="#F9CAC3"/>
<path d="M34.3279 23.115C33.3957 23.1066 32.557 23.4147 31.7392 23.8315C30.5415 24.4422 29.3289 25.0246 28.1227 25.6188C27.3554 24.4033 28.4856 23.8785 29.0536 23.1836C29.5796 22.5407 30.5797 22.5885 31.1099 21.9089C31.3627 21.8005 31.6155 21.6926 31.9299 21.5576C31.6228 21.4107 31.3602 21.285 31.0972 21.1589C31.9822 20.9181 34.3882 22.007 34.6521 22.7934C34.6737 22.8573 34.4417 23.0058 34.3275 23.115H34.3279Z" fill="#EF6467"/>
<path d="M56.245 4.53307C56.8904 4.71929 57.5362 4.90551 58.1815 5.09215C58.2988 5.49971 57.9682 5.48405 57.7354 5.56065C56.8853 5.39263 56.0908 5.80527 55.2559 5.79681C54.9126 5.98514 54.6101 6.07783 54.2477 5.75449C54.1202 5.64106 54.6781 5.31138 54.1687 5.51875C51.509 6.60219 48.7189 6.80238 45.8948 6.75413C45.4487 6.74651 44.8403 6.82481 44.8382 6.06725C48.4045 3.81487 52.179 3.10048 56.2446 4.53307H56.245Z" fill="#FAC1BA"/>
<path d="M44.8386 6.06728C45.7674 6.97974 46.9111 6.42532 47.9164 6.40162C50.4027 6.34321 52.8248 5.73759 55.233 5.02954C55.2678 5.66987 54.7346 5.43922 54.478 5.62501C54.7159 5.89672 55.0142 5.71981 55.2563 5.79684C54.4015 6.49727 53.5649 7.2324 52.3715 7.28234C52.0622 7.29546 51.8336 7.31789 51.8931 7.77624C52.0983 9.35527 52.0562 9.37262 50.5178 8.76488C50.6049 8.69885 50.9588 8.61167 50.7137 8.55284C49.4692 8.25532 48.453 7.40592 46.9842 7.50284C46.1179 7.55997 45.0587 6.80537 44.045 6.52689C44.3092 6.37369 44.5739 6.22048 44.8382 6.0677L44.8386 6.06728Z" fill="#F8999B"/>
<path d="M57.7358 5.56072C57.8845 5.40456 58.0337 5.24796 58.1819 5.0918C58.7232 5.33515 59.2645 5.57808 60.0556 5.93358C59.0215 6.11514 58.3515 5.98564 57.7354 5.56072H57.7358Z" fill="#F8999B"/>
<path d="M33.3341 19.1736H34.1966C32.4419 20.0966 28.056 20.3328 26.1224 19.6747C26.6008 19.3683 27.1383 19.4119 27.6672 19.422C29.5617 19.4584 31.4562 19.5067 33.3341 19.1736Z" fill="#FBB3AF"/>
<path d="M33.2071 35.5306C33.6009 35.5687 33.8032 35.8129 33.7917 36.1807C33.7802 36.5412 33.6009 36.8083 33.1752 36.7744C32.7729 36.7427 32.6055 36.501 32.6059 36.118C32.6059 35.7193 32.7873 35.5052 33.2075 35.5306H33.2071Z" fill="#70302D"/>
<path d="M48.7644 41.4798C48.7703 41.9373 48.5974 42.1984 48.2035 42.1912C47.794 42.1836 47.5208 41.9593 47.4987 41.5183C47.4817 41.1827 47.6283 40.9851 47.9864 40.9669C48.4164 40.9449 48.6679 41.1446 48.7648 41.4798H48.7644Z" fill="#6B2727"/>
<path d="M38.3624 38.6319C37.9864 38.5388 37.6142 38.408 37.6431 37.9403C37.6626 37.6225 37.9137 37.4236 38.2323 37.4227C38.6725 37.4215 38.93 37.6898 38.9211 38.1172C38.9147 38.4279 38.7214 38.6471 38.3624 38.6323V38.6319Z" fill="#652B26"/>
<path d="M44.2608 39.8229C44.2345 40.2042 43.9783 40.3489 43.6779 40.3468C43.3406 40.3447 43.0185 40.2317 43.0045 39.8004C42.9909 39.3925 43.1944 39.1885 43.6069 39.2359C43.9651 39.2773 44.2103 39.461 44.2608 39.8225V39.8229Z" fill="#692C27"/>
<path d="M31.8717 40.0192C31.8717 40.2529 31.8717 40.4865 31.8726 40.7197C31.8496 40.8788 31.8267 41.0383 31.8033 41.1975C31.7655 41.1987 31.7277 41.2 31.6903 41.2017V38.7627C31.9979 39.1588 31.7668 39.6163 31.8717 40.0197V40.0192Z" fill="#F59B91"/>
</g>
<defs>
<clipPath id="clip0_246_1874">
<rect width="105" height="50" fill="white"/>
</clipPath>
</defs>
</svg>
