<svg width="24" height="24" viewBox="0 0 24 24" fill="none" xmlns="http://www.w3.org/2000/svg">
<path d="M18.5 6.26008C18.773 5.80929 18.9437 5.30406 19 4.78008C19.0794 3.89214 18.8111 3.00803 18.2514 2.31409C17.6918 1.62015 16.8846 1.17056 16 1.06008C15.4773 0.948006 14.9359 0.955449 14.4165 1.08185C13.897 1.20826 13.4128 1.45035 13 1.79008C12.5908 2.15162 12.2518 2.58555 12 3.07008C11.7482 2.58555 11.4092 2.15162 11 1.79008C10.5872 1.45035 10.103 1.20826 9.58352 1.08185C9.06405 0.955449 8.52275 0.948006 8 1.06008C7.11539 1.17056 6.30821 1.62015 5.74858 2.31409C5.18894 3.00803 4.92056 3.89214 5 4.78008C5.05633 5.30406 5.22701 5.80929 5.5 6.26008C4.48985 6.57773 3.60663 7.2079 2.97762 8.05976C2.34861 8.91161 2.0063 9.94118 2 11.0001V18.0001C2 18.6567 2.12933 19.3069 2.3806 19.9135C2.63188 20.5201 3.00017 21.0713 3.46447 21.5356C4.40215 22.4733 5.67392 23.0001 7 23.0001H17C17.6566 23.0001 18.3068 22.8708 18.9134 22.6195C19.52 22.3682 20.0712 21.9999 20.5355 21.5356C20.9998 21.0713 21.3681 20.5201 21.6194 19.9135C21.8707 19.3069 22 18.6567 22 18.0001V11.0001C21.9937 9.94118 21.6514 8.91161 21.0224 8.05976C20.3934 7.2079 19.5102 6.57773 18.5 6.26008ZM14.31 3.33008C14.4931 3.17598 14.7092 3.06607 14.9415 3.00884C15.1739 2.95162 15.4163 2.94862 15.65 3.00008C15.8471 3.00952 16.0402 3.05967 16.217 3.14736C16.3938 3.23506 16.5505 3.3584 16.6773 3.50963C16.8042 3.66086 16.8983 3.83671 16.9538 4.02609C17.0093 4.21548 17.0251 4.41432 17 4.61008C16.9826 4.81412 16.9244 5.0126 16.8289 5.19374C16.7334 5.37489 16.6025 5.53502 16.444 5.66464C16.2855 5.79427 16.1025 5.89075 15.906 5.94837C15.7095 6.00599 15.5034 6.02357 15.3 6.00008H13.11C13.2135 5.00447 13.6342 4.06847 14.31 3.33008ZM8.31 3.03008C8.43981 3.02016 8.57019 3.02016 8.7 3.03008C9.04589 3.02322 9.38284 3.14027 9.65 3.36008C10.3346 4.08512 10.7691 5.01026 10.89 6.00008H8.7C8.49657 6.02357 8.29049 6.00599 8.09399 5.94837C7.89748 5.89075 7.71453 5.79427 7.556 5.66464C7.39747 5.53502 7.26657 5.37489 7.17106 5.19374C7.07556 5.0126 7.01739 4.81412 7 4.61008C6.97645 4.41457 6.99325 4.2163 7.04937 4.02754C7.10548 3.83878 7.19971 3.66354 7.32624 3.51264C7.45277 3.36174 7.6089 3.2384 7.78499 3.15024C7.96108 3.06208 8.15338 3.01097 8.35 3.00008L8.31 3.03008ZM17 19.0001H13C12.7348 19.0001 12.4804 18.8947 12.2929 18.7072C12.1054 18.5196 12 18.2653 12 18.0001C12 17.7349 12.1054 17.4805 12.2929 17.293C12.4804 17.1054 12.7348 17.0001 13 17.0001H17C17.2652 17.0001 17.5196 17.1054 17.7071 17.293C17.8946 17.4805 18 17.7349 18 18.0001C18 18.2653 17.8946 18.5196 17.7071 18.7072C17.5196 18.8947 17.2652 19.0001 17 19.0001Z" fill="#6A6F74"/>
</svg>
