<svg width="88" height="33" viewBox="0 0 88 33" fill="none" xmlns="http://www.w3.org/2000/svg">
<rect x="-0.00476074" width="87.6148" height="33" rx="5" fill="#123984"/>
<path d="M65.7561 11.9626C63.9704 11.9626 62.5579 12.4365 61.478 12.6523L61.1451 15.3669C61.6855 15.1083 63.3882 14.6346 64.801 14.5912C66.2133 14.548 67.044 14.8494 66.7537 16.0564C62.5579 16.0564 59.7326 16.9179 59.1512 19.6332C58.3197 24.2874 63.4306 24.1579 65.4658 22.1325L65.2162 23.2532H68.955L70.5758 15.8411C71.2397 12.6947 68.3732 11.9197 65.7561 11.9626ZM66.0053 19.5467C65.7977 20.5374 65.0089 20.9691 64.0535 21.0127C63.2228 21.0551 62.4744 20.3221 63.0148 19.4608C63.431 18.7285 64.5939 18.5557 65.3 18.5557C65.5903 18.5557 65.9242 18.5557 66.214 18.5557C66.13 18.9005 66.0877 19.2026 66.0053 19.5467Z" fill="#65C8F6"/>
<path d="M73.7739 9.03146L70.6807 23.2529H74.4787L77.61 9.03146H73.7739Z" fill="#65C8F6"/>
<path d="M56.3252 9.07518H49.3721L46.291 23.2529H50.3297L51.3709 18.5557H54.2442C57.0749 18.5557 59.4068 16.8321 60.0316 13.9015C60.7385 10.5835 58.3237 9.07518 56.3252 9.07518ZM56.201 13.9015C55.9504 14.9789 54.8678 15.8407 53.8265 15.8407H51.9533L52.7863 11.9625H54.7845C55.8262 11.9625 56.4505 12.8244 56.201 13.9015Z" fill="#65C8F6"/>
<path d="M29.3435 11.9626C27.579 11.9626 26.1832 12.4365 25.1574 12.6523L24.8294 15.3669C25.3217 15.1083 27.0048 14.6346 28.3994 14.5912C29.795 14.548 30.6159 14.8494 30.3693 16.0564C26.2248 16.0564 23.4343 16.9179 22.8596 19.6332C22.0386 24.2874 27.0861 24.1579 29.0557 22.1325L28.8099 23.2532H32.5444L34.1446 15.8411C34.8013 12.6947 31.9283 11.9197 29.3435 11.9626ZM29.6303 19.5467C29.4253 20.5374 28.6044 20.9691 27.6606 21.0127C26.8397 21.0551 26.1423 20.3221 26.6757 19.4608C27.0859 18.7285 28.2349 18.5557 28.8917 18.5557C29.2201 18.5557 29.507 18.5557 29.8355 18.5557C29.7537 18.9005 29.6716 19.2026 29.6303 19.5467Z" fill="white"/>
<path d="M35.7716 12.1663H39.5056L40.108 18.7692L43.7618 12.1663H47.6152L38.7428 27.9685H34.5671L37.2967 23.3226L35.7716 12.1663Z" fill="white"/>
<path d="M20.0554 9.07518H13.0842L9.99524 23.2529H14.0866L15.0882 18.5557H18.0098C20.8066 18.5557 23.1447 16.8321 23.7705 13.9015C24.4798 10.5835 22.1007 9.07518 20.0554 9.07518ZM19.93 13.9015C19.6796 14.9789 18.6361 15.8407 17.5925 15.8407H15.6723L16.549 11.9625H18.5525C19.5548 11.9625 20.2223 12.8244 19.93 13.9015Z" fill="white"/>
</svg>
