<svg width="27" height="24" viewBox="0 0 27 24" fill="none" xmlns="http://www.w3.org/2000/svg">
<path d="M20.4599 24.0012H7.05991C5.95064 24.0088 4.85933 23.721 3.89803 23.1675C2.93674 22.6139 2.1401 21.8144 1.58991 20.8512C1.03705 19.908 0.745605 18.8345 0.745605 17.7412C0.745605 16.6479 1.03705 15.5744 1.58991 14.6312L8.31991 3.12117C8.87496 2.17091 9.66924 1.38261 10.6237 0.834769C11.5781 0.286929 12.6594 -0.00134277 13.7599 -0.00134277C14.8604 -0.00134277 15.9417 0.286929 16.8961 0.834769C17.8506 1.38261 18.6449 2.17091 19.1999 3.12117L25.9099 14.6312C26.4628 15.5744 26.7542 16.6479 26.7542 17.7412C26.7542 18.8345 26.4628 19.908 25.9099 20.8512C25.3614 21.8115 24.5679 22.609 23.6104 23.1624C22.653 23.7158 21.5658 24.0052 20.4599 24.0012ZM13.7599 2.00117C13.0092 1.99445 12.2702 2.18718 11.6183 2.55965C10.9665 2.93213 10.4253 3.47099 10.0499 4.12117L3.33991 15.6412C2.96443 16.2791 2.76643 17.0059 2.76643 17.7462C2.76643 18.4864 2.96443 19.2132 3.33991 19.8512C3.71143 20.5091 4.25241 21.0556 4.90661 21.4337C5.5608 21.8118 6.30434 22.0077 7.05991 22.0012H20.4599C21.2172 22.0095 21.9628 21.8144 22.6189 21.4362C23.275 21.058 23.8176 20.5106 24.1899 19.8512C24.5654 19.2132 24.7634 18.4864 24.7634 17.7462C24.7634 17.0059 24.5654 16.2791 24.1899 15.6412L17.4699 4.12117C17.0946 3.47099 16.5533 2.93213 15.9015 2.55965C15.2497 2.18718 14.5106 1.99445 13.7599 2.00117Z" fill="#ADBCCD"/>
<path d="M15.7599 7.00119C15.5201 6.70104 15.2158 6.45872 14.8695 6.29219C14.5233 6.12566 14.1441 6.03918 13.7599 6.03918C13.3757 6.03918 12.9964 6.12566 12.6502 6.29219C12.304 6.45872 11.9997 6.70104 11.7599 7.00119C11.5183 7.30539 11.351 7.6617 11.2712 8.04184C11.1913 8.42199 11.2011 8.8155 11.2999 9.19118L12.7599 15.2412C12.8141 15.4574 12.939 15.6493 13.1147 15.7865C13.2904 15.9236 13.507 15.9981 13.7299 15.9981C13.9528 15.9981 14.1693 15.9236 14.3451 15.7865C14.5208 15.6493 14.6457 15.4574 14.6999 15.2412L16.2099 9.18119C16.3084 8.80775 16.319 8.41657 16.2409 8.03834C16.1628 7.66011 15.9982 7.30511 15.7599 7.00119ZM14.2999 8.70119L13.7599 10.8812L13.2199 8.70119C13.1958 8.61912 13.1923 8.53239 13.2098 8.44866C13.2272 8.36493 13.265 8.2868 13.3199 8.22119C13.3711 8.15288 13.4375 8.09744 13.5139 8.05925C13.5903 8.02107 13.6745 8.00119 13.7599 8.00119C13.8453 8.00119 13.9295 8.02107 14.0058 8.05925C14.0822 8.09744 14.1486 8.15288 14.1999 8.22119C14.2547 8.2868 14.2926 8.36493 14.31 8.44866C14.3274 8.53239 14.324 8.61912 14.2999 8.70119Z" fill="#ADBCCD"/>
<path d="M13.7598 20.0012C14.5882 20.0012 15.2598 19.3296 15.2598 18.5012C15.2598 17.6727 14.5882 17.0012 13.7598 17.0012C12.9313 17.0012 12.2598 17.6727 12.2598 18.5012C12.2598 19.3296 12.9313 20.0012 13.7598 20.0012Z" fill="#ADBCCD"/>
</svg>
