<svg width="24" height="24" viewBox="0 0 24 24" fill="none" xmlns="http://www.w3.org/2000/svg">
<path d="M21.0987 6.68896H10.031C9.67062 6.68896 9.46549 6.96759 9.57237 7.31184L11.3232 12.4407C11.4095 12.7175 11.7147 12.9417 12.0046 12.9417H19.2609C19.5507 12.9417 19.8556 12.7175 19.9415 12.4407L21.4674 7.19071C21.554 6.91396 21.389 6.68896 21.0987 6.68896Z" fill="#6A6F74"/>
<path d="M11.0317 20.5058C11.9461 20.5058 12.6873 19.7646 12.6873 18.8502C12.6873 17.9358 11.9461 17.1946 11.0317 17.1946C10.1173 17.1946 9.3761 17.9358 9.3761 18.8502C9.3761 19.7646 10.1173 20.5058 11.0317 20.5058Z" fill="#6A6F74"/>
<path d="M18.0376 20.5268C18.952 20.5268 19.6932 19.7856 19.6932 18.8712C19.6932 17.9568 18.952 17.2156 18.0376 17.2156C17.1232 17.2156 16.382 17.9568 16.382 18.8712C16.382 19.7856 17.1232 20.5268 18.0376 20.5268Z" fill="#6A6F74"/>
<path d="M20.025 14.6265H10.3421L6.46576 3.4729H3.44739C2.92951 3.4729 2.50989 3.89253 2.50989 4.4104C2.50989 4.92828 2.92951 5.3479 3.44739 5.3479H5.13226L9.00864 16.5015H20.025C20.5429 16.5015 20.9625 16.0819 20.9625 15.564C20.9625 15.0462 20.5429 14.6265 20.025 14.6265Z" fill="#6A6F74"/>
</svg>
