<svg width="22" height="24" viewBox="0 0 22 24" fill="none" xmlns="http://www.w3.org/2000/svg">
<path d="M21.0107 14.4L19.8329 13.7C18.557 12.9 18.557 11 19.8329 10.2L21.0107 9.5C21.9921 8.9 22.2865 7.7 21.6977 6.8L20.7162 5.1C20.1273 4.1 18.9496 3.8 18.0663 4.4L16.8885 5.1C15.6127 5.9 13.9442 4.9 13.9442 3.4V2C13.9442 0.9 13.0609 0 11.9813 0H10.0184C8.93876 0 8.05545 0.9 8.05545 2V3.3C8.05545 4.8 6.38698 5.8 5.11109 5L3.93334 4.4C2.95189 3.8 1.77414 4.2 1.28341 5.1L0.30196 6.8C-0.188767 7.8 0.105669 9 0.988978 9.6L2.16672 10.3C3.44262 11 3.44262 13 2.16672 13.7L0.988978 14.4C0.00752359 15 -0.286913 16.2 0.30196 17.1L1.28341 18.8C1.87229 19.8 3.05003 20.1 3.93334 19.5L5.11109 18.9C6.38698 18.1 8.05545 19.1 8.05545 20.6V22C8.05545 23.1 8.93876 24 10.0184 24H11.9813C13.0609 24 13.9442 23.1 13.9442 22V20.7C13.9442 19.2 15.6127 18.2 16.8885 19L18.0663 19.7C19.0477 20.3 20.2255 19.9 20.7162 19L21.6977 17.3C22.1884 16.2 21.894 15 21.0107 14.4ZM10.9998 16C8.84062 16 7.074 14.2 7.074 12C7.074 9.8 8.84062 8 10.9998 8C13.159 8 14.9256 9.8 14.9256 12C14.9256 14.2 13.159 16 10.9998 16Z" fill="#6A6F74"/>
</svg>
