<svg width="24" height="24" viewBox="0 0 24 24" fill="none" xmlns="http://www.w3.org/2000/svg">
<g clip-path="url(#clip0_170_2336)">
<path d="M22.0107 14.4L20.8329 13.7C19.557 12.9 19.557 11 20.8329 10.2L22.0107 9.5C22.9921 8.9 23.2865 7.7 22.6977 6.8L21.7162 5.1C21.1273 4.1 19.9496 3.8 19.0663 4.4L17.8885 5.1C16.6127 5.9 14.9442 4.9 14.9442 3.4V2C14.9442 0.9 14.0609 0 12.9813 0H11.0184C9.93876 0 9.05545 0.9 9.05545 2V3.3C9.05545 4.8 7.38698 5.8 6.11109 5L4.93334 4.4C3.95189 3.8 2.77414 4.2 2.28341 5.1L1.30196 6.8C0.811233 7.8 1.10567 9 1.98898 9.6L3.16672 10.3C4.44262 11 4.44262 13 3.16672 13.7L1.98898 14.4C1.00752 15 0.713087 16.2 1.30196 17.1L2.28341 18.8C2.87229 19.8 4.05003 20.1 4.93334 19.5L6.11109 18.9C7.38698 18.1 9.05545 19.1 9.05545 20.6V22C9.05545 23.1 9.93876 24 11.0184 24H12.9813C14.0609 24 14.9442 23.1 14.9442 22V20.7C14.9442 19.2 16.6127 18.2 17.8885 19L19.0663 19.7C20.0477 20.3 21.2255 19.9 21.7162 19L22.6977 17.3C23.1884 16.2 22.894 15 22.0107 14.4ZM11.9998 16C9.84062 16 8.074 14.2 8.074 12C8.074 9.8 9.84062 8 11.9998 8C14.159 8 15.9256 9.8 15.9256 12C15.9256 14.2 14.159 16 11.9998 16Z" fill="#6A6F74"/>
</g>
<defs>
<clipPath id="clip0_170_2336">
<rect width="24" height="24" fill="white"/>
</clipPath>
</defs>
</svg>
