<svg width="181" height="46" viewBox="0 0 181 46" fill="none" xmlns="http://www.w3.org/2000/svg">
<mask id="path-1-outside-1_751_2606" maskUnits="userSpaceOnUse" x="0.228577" y="0.228638" width="45" height="45" fill="black">
<rect fill="white" x="0.228577" y="0.228638" width="45" height="45"/>
<path d="M29.2619 2.24361C29.233 2.23123 29.2042 2.22091 29.1732 2.21472C27.1371 1.57315 24.9731 1.22864 22.7306 1.22864C10.8728 1.22864 1.22858 10.8729 1.22858 22.7286C1.22858 27.4982 2.79023 31.9067 5.42667 35.4776C5.43492 35.4941 5.44111 35.5127 5.45142 35.5271C6.13838 36.505 6.98832 37.3755 7.02339 37.4127C7.04195 37.4312 7.06052 37.4457 7.08115 37.4601C11.0049 41.6252 16.5666 44.2286 22.7265 44.2286C28.8865 44.2286 34.6792 41.617 38.7597 37.0496C38.768 37.0413 38.7762 37.0331 38.7824 37.0228C38.8649 36.9299 38.9474 36.8392 39.0279 36.7463C39.1434 36.6122 39.2548 36.4782 39.3683 36.342C39.7025 35.9335 40.0222 35.5127 40.3214 35.0877C42.8773 31.457 44.2286 27.1825 44.2286 22.7266C44.2286 13.1483 37.9325 5.01414 29.2619 2.24154V2.24361ZM22.7286 1.94035C24.8225 1.94035 26.8441 2.25392 28.7524 2.83154V7.9889H27.985C27.8323 7.9889 27.6941 8.08793 27.6466 8.23233L27.0484 10.0415C26.2583 10.2169 23.628 11.0132 23.0256 13.9694C22.9844 14.1757 23.036 14.3861 23.17 14.5491C23.3041 14.7141 23.5042 14.809 23.7167 14.809H34.5039C34.7163 14.809 34.9164 14.7141 35.0505 14.5491C35.1846 14.3861 35.2362 14.1736 35.1949 13.9694C34.5905 11.0132 31.9623 10.2169 31.1722 10.0415L30.574 8.23233C30.5265 8.08586 30.3883 7.9889 30.2356 7.9889H29.4682V3.06259C37.6333 5.8682 43.5189 13.6228 43.5189 22.7286C43.5189 26.642 42.4379 30.4069 40.3894 33.6952V31.4054H40.6968C40.8928 31.4054 41.0537 31.2465 41.0537 31.0485V23.5394C41.0537 23.3434 40.8949 23.1825 40.6968 23.1825H27.3228C27.1268 23.1825 26.9659 23.3413 26.9659 23.5394V31.0485C26.9659 31.2445 27.1247 31.4054 27.3228 31.4054H27.6301V36.4369H24.806C24.5832 34.7432 24.447 32.2058 25.0391 29.6312C25.0391 29.6251 25.0391 29.6189 25.0411 29.6147C25.0411 29.6106 25.0432 29.6086 25.0432 29.6044C25.2639 28.1109 25.0535 27.0918 24.4161 26.5781C23.6982 25.9984 22.7451 26.3058 22.6151 26.3512C21.7446 26.6152 20.7647 26.7596 19.7662 26.8298C19.2752 26.8421 18.9266 26.7019 18.6955 26.4007C18.0333 25.5363 18.4459 23.5332 18.6605 22.8359C19.335 20.6843 18.7904 19.3846 18.2149 18.6729C17.7383 18.0829 17.0287 17.6744 16.22 17.5238C11.8837 16.7152 8.80577 17.3547 7.71241 17.6579C7.56594 17.6868 7.42566 17.7322 7.29157 17.7858C7.28744 17.7858 7.28125 17.7899 7.27919 17.7899C7.27919 17.7899 7.27713 17.7899 7.27506 17.7899C6.85422 17.9632 6.49115 18.2541 6.19408 18.6646C4.17859 21.4393 5.7753 28.9298 5.84132 29.2434C6.36531 31.8097 5.95065 33.6829 5.65565 34.5741C3.31628 31.2115 1.94029 27.1289 1.94029 22.7286C1.94029 11.2669 11.2669 1.94035 22.7286 1.94035ZM27.3454 10.712H30.871C31.133 10.7532 33.9139 11.2649 34.5018 14.1014H29.1093L23.7229 14.1158C24.3088 11.2463 27.0566 10.7553 27.3454 10.712ZM27.8137 9.99821L28.2428 8.70268H29.9757L30.4048 9.99821H27.8158H27.8137ZM39.5395 34.9557C39.5003 35.0093 39.4611 35.063 39.4219 35.1166C39.358 35.2033 39.292 35.2878 39.2259 35.3745C39.1929 35.4178 39.1599 35.4632 39.1249 35.5065C39.1228 35.5106 39.1187 35.5148 39.1166 35.5168V32.7236C39.1166 32.5276 38.9578 32.3667 38.7597 32.3667H29.2557C29.0598 32.3667 28.8988 32.5256 28.8988 32.7236V37.6252H28.3418V36.7938V31.4074H39.6736V34.77C39.6303 34.8319 39.5849 34.8938 39.5395 34.9557ZM38.4028 36.3812C38.3863 36.3998 38.3698 36.4204 38.3512 36.439H29.6106V33.0826H38.4028V36.3812ZM40.3379 26.9391H27.6776V23.8963H40.3379V26.9391ZM40.3379 27.6529V30.6957H27.6776V27.6529H40.3379ZM22.7822 31.2775C22.7822 31.1702 22.7306 31.0691 22.6461 31.0031C22.5615 30.9371 22.4521 30.9123 22.3469 30.9371C21.5589 31.1186 20.1313 31.0588 20.1169 31.0588C19.9209 31.0444 19.7559 31.2011 19.7456 31.3951C19.6115 33.8231 19.0483 35.5663 18.5614 36.6535C18.5614 36.6535 18.5614 36.6576 18.5594 36.6597C18.5264 36.734 18.4934 36.8041 18.4624 36.8701C18.4088 36.9815 18.3098 37.062 18.1901 37.0888C18.0704 37.1156 17.9446 37.0888 17.8497 37.0083C17.7094 36.8949 17.664 36.6968 17.7404 36.5297C19.0627 33.6045 18.9286 31.6179 18.7595 30.7576C21.5403 30.6751 23.3578 30.2976 24.2263 30.0665C23.7229 32.6988 23.9106 35.226 24.1479 36.8474C24.1479 36.8557 24.1479 36.8639 24.152 36.8701C24.2242 37.3611 24.3005 37.7696 24.3645 38.0687C24.3851 38.1718 24.3645 38.277 24.3047 38.3637C24.2448 38.4503 24.1561 38.506 24.0509 38.5246C23.857 38.5555 23.6713 38.4359 23.6198 38.2461C22.8689 35.457 22.7863 31.3187 22.7843 31.2775H22.7822ZM22.514 36.439H19.4217C19.8508 35.3497 20.2861 33.7984 20.4325 31.7788C20.8307 31.785 21.5032 31.7788 22.0787 31.7045C22.1076 32.5441 22.2067 34.5101 22.514 36.439ZM17.0864 36.2347C17.0555 36.3028 17.0349 36.3729 17.0183 36.4452C16.9957 36.441 16.9709 36.4369 16.9461 36.4369H13.1029C12.7027 33.0537 13.1194 31.1764 13.305 30.5513C15.0874 30.7246 16.6615 30.7844 18.0271 30.77C18.1715 31.4033 18.4088 33.3095 17.0864 36.2347ZM11.7867 39.521C11.4422 37.5488 10.9265 33.8788 11.3514 31.4755C11.37 31.3682 11.3391 31.2589 11.2669 31.1764C11.1988 31.1001 11.1018 31.0567 11.0007 31.0567C10.9946 31.0567 10.9863 31.0567 10.9801 31.0567C10.9657 31.0567 9.47416 31.1413 8.38493 31.0567C8.28591 31.0506 8.19101 31.0815 8.11881 31.1475C8.04661 31.2135 8.00328 31.3064 8.00122 31.4033C8.00122 31.4363 7.92902 34.4503 7.2008 36.4369H7.11622C6.78408 36.0594 6.46433 35.6695 6.16108 35.2672C6.38387 34.7453 6.88104 33.3177 6.79646 31.1929C6.88929 31.0299 7.67321 30.0356 12.581 30.4812C12.2983 31.5023 11.8094 34.2832 12.8553 39.3126C12.9069 39.5602 12.7852 39.8098 12.5583 39.9171C12.4035 39.9913 12.2261 39.9872 12.0735 39.9088C11.9208 39.8304 11.8156 39.6881 11.7867 39.5189V39.521ZM10.6356 36.439H7.95377C8.50664 34.7721 8.6593 32.6411 8.6985 31.7911C9.38546 31.8221 10.1261 31.8056 10.582 31.7891C10.4025 33.1836 10.4768 34.8814 10.6356 36.439ZM7.52056 18.4604C7.52674 18.4583 7.65465 18.413 7.89188 18.349C7.9414 18.3408 7.99297 18.3304 8.04454 18.3263C8.05279 18.3263 8.06105 18.3263 8.0693 18.3222C8.07342 18.3222 8.51077 18.2582 8.82434 18.6193C9.15028 18.9947 9.54843 20.086 8.55822 23.1536C8.51283 23.2918 8.46126 23.4383 8.39112 23.6178C7.94552 24.7483 7.29982 26.7823 7.97234 27.6921C8.1415 27.9231 8.47364 28.1892 9.08633 28.1397C9.38546 28.117 9.67839 28.016 9.95895 27.8427C10.9058 27.2547 12.1065 26.7638 12.6387 27.1557C12.8863 27.3373 13.2184 27.9231 12.7831 29.788C9.16059 29.4456 7.49374 29.854 6.72838 30.31C6.68506 29.9242 6.62317 29.5198 6.53653 29.099C6.52003 29.0247 4.93775 21.6043 6.76758 19.0855C6.98006 18.7925 7.22762 18.5862 7.51643 18.4604H7.52056ZM24.3686 29.2826C23.5042 29.5405 19.8549 30.4585 13.499 29.8561C13.7589 28.705 13.7754 27.8406 13.5505 27.2485C15.4856 27.5291 19.7373 27.9685 22.8297 27.0319C22.8358 27.0319 22.8441 27.0278 22.8503 27.0257C22.8565 27.0237 23.5352 26.7823 23.9705 27.1371C24.3624 27.4569 24.4986 28.1975 24.3666 29.2826H24.3686ZM17.9838 22.6234C17.9487 22.741 17.1112 25.4992 18.1323 26.8339C18.1447 26.8504 18.1612 26.8648 18.1736 26.8813C15.434 26.8752 12.9461 26.4337 12.68 26.3842C11.7083 26.0644 10.3612 26.7534 9.5835 27.2362C9.40196 27.3496 9.2163 27.4136 9.03269 27.428C8.72119 27.4528 8.60566 27.3476 8.54584 27.2671C8.22402 26.8318 8.42825 25.4682 9.05332 23.8756C9.12965 23.6838 9.18741 23.5229 9.23692 23.3702C10.0745 20.7771 10.1157 19.0215 9.36276 18.151C9.33388 18.118 9.305 18.0891 9.27612 18.0602C10.7697 17.8271 13.138 17.6724 16.09 18.2232C16.7337 18.3428 17.2927 18.6626 17.662 19.1206C18.3386 19.9581 18.448 21.136 17.9817 22.6234H17.9838ZM7.77223 37.1507H10.6686C10.683 37.1507 10.6996 37.1486 10.714 37.1465C10.8275 38.0996 10.9657 38.9702 11.0833 39.6448C11.108 39.783 11.1534 39.913 11.2194 40.0305C9.96927 39.1951 8.81402 38.2296 7.77223 37.1507ZM22.7286 43.5169C18.9142 43.5169 15.3391 42.4834 12.2633 40.6845C12.2839 40.6845 12.3025 40.6886 12.3231 40.6886C12.5067 40.6886 12.6924 40.6474 12.8656 40.5648C13.3896 40.3152 13.6723 39.7417 13.5547 39.1724C13.4041 38.4524 13.2885 37.7799 13.1978 37.1527H16.9461C16.9915 37.1527 17.0328 37.1445 17.074 37.128C17.1421 37.293 17.2515 37.4436 17.3979 37.5633C17.664 37.7799 18.0106 37.8603 18.3448 37.784C18.679 37.7077 18.9555 37.4869 19.104 37.1775C19.1081 37.1692 19.1122 37.161 19.1164 37.1527H22.6399C22.7245 37.5942 22.8193 38.0254 22.9287 38.4338C23.0607 38.9207 23.496 39.2446 23.9849 39.2446C24.0427 39.2446 24.1025 39.2404 24.1623 39.2301C24.4594 39.1827 24.7173 39.0176 24.8885 38.7701C25.0597 38.5225 25.1195 38.2213 25.0576 37.9263C25.0143 37.718 24.9648 37.4581 24.9132 37.1527H27.6301V37.9862C27.6301 38.1821 27.789 38.3431 27.987 38.3431H29.2578C29.4538 38.3431 29.6147 38.1842 29.6147 37.9862V37.1527H37.7014C33.7901 41.2126 28.3996 43.519 22.7306 43.519L22.7286 43.5169Z"/>
</mask>
<path d="M29.2619 2.24361C29.233 2.23123 29.2042 2.22091 29.1732 2.21472C27.1371 1.57315 24.9731 1.22864 22.7306 1.22864C10.8728 1.22864 1.22858 10.8729 1.22858 22.7286C1.22858 27.4982 2.79023 31.9067 5.42667 35.4776C5.43492 35.4941 5.44111 35.5127 5.45142 35.5271C6.13838 36.505 6.98832 37.3755 7.02339 37.4127C7.04195 37.4312 7.06052 37.4457 7.08115 37.4601C11.0049 41.6252 16.5666 44.2286 22.7265 44.2286C28.8865 44.2286 34.6792 41.617 38.7597 37.0496C38.768 37.0413 38.7762 37.0331 38.7824 37.0228C38.8649 36.9299 38.9474 36.8392 39.0279 36.7463C39.1434 36.6122 39.2548 36.4782 39.3683 36.342C39.7025 35.9335 40.0222 35.5127 40.3214 35.0877C42.8773 31.457 44.2286 27.1825 44.2286 22.7266C44.2286 13.1483 37.9325 5.01414 29.2619 2.24154V2.24361ZM22.7286 1.94035C24.8225 1.94035 26.8441 2.25392 28.7524 2.83154V7.9889H27.985C27.8323 7.9889 27.6941 8.08793 27.6466 8.23233L27.0484 10.0415C26.2583 10.2169 23.628 11.0132 23.0256 13.9694C22.9844 14.1757 23.036 14.3861 23.17 14.5491C23.3041 14.7141 23.5042 14.809 23.7167 14.809H34.5039C34.7163 14.809 34.9164 14.7141 35.0505 14.5491C35.1846 14.3861 35.2362 14.1736 35.1949 13.9694C34.5905 11.0132 31.9623 10.2169 31.1722 10.0415L30.574 8.23233C30.5265 8.08586 30.3883 7.9889 30.2356 7.9889H29.4682V3.06259C37.6333 5.8682 43.5189 13.6228 43.5189 22.7286C43.5189 26.642 42.4379 30.4069 40.3894 33.6952V31.4054H40.6968C40.8928 31.4054 41.0537 31.2465 41.0537 31.0485V23.5394C41.0537 23.3434 40.8949 23.1825 40.6968 23.1825H27.3228C27.1268 23.1825 26.9659 23.3413 26.9659 23.5394V31.0485C26.9659 31.2445 27.1247 31.4054 27.3228 31.4054H27.6301V36.4369H24.806C24.5832 34.7432 24.447 32.2058 25.0391 29.6312C25.0391 29.6251 25.0391 29.6189 25.0411 29.6147C25.0411 29.6106 25.0432 29.6086 25.0432 29.6044C25.2639 28.1109 25.0535 27.0918 24.4161 26.5781C23.6982 25.9984 22.7451 26.3058 22.6151 26.3512C21.7446 26.6152 20.7647 26.7596 19.7662 26.8298C19.2752 26.8421 18.9266 26.7019 18.6955 26.4007C18.0333 25.5363 18.4459 23.5332 18.6605 22.8359C19.335 20.6843 18.7904 19.3846 18.2149 18.6729C17.7383 18.0829 17.0287 17.6744 16.22 17.5238C11.8837 16.7152 8.80577 17.3547 7.71241 17.6579C7.56594 17.6868 7.42566 17.7322 7.29157 17.7858C7.28744 17.7858 7.28125 17.7899 7.27919 17.7899C7.27919 17.7899 7.27713 17.7899 7.27506 17.7899C6.85422 17.9632 6.49115 18.2541 6.19408 18.6646C4.17859 21.4393 5.7753 28.9298 5.84132 29.2434C6.36531 31.8097 5.95065 33.6829 5.65565 34.5741C3.31628 31.2115 1.94029 27.1289 1.94029 22.7286C1.94029 11.2669 11.2669 1.94035 22.7286 1.94035ZM27.3454 10.712H30.871C31.133 10.7532 33.9139 11.2649 34.5018 14.1014H29.1093L23.7229 14.1158C24.3088 11.2463 27.0566 10.7553 27.3454 10.712ZM27.8137 9.99821L28.2428 8.70268H29.9757L30.4048 9.99821H27.8158H27.8137ZM39.5395 34.9557C39.5003 35.0093 39.4611 35.063 39.4219 35.1166C39.358 35.2033 39.292 35.2878 39.2259 35.3745C39.1929 35.4178 39.1599 35.4632 39.1249 35.5065C39.1228 35.5106 39.1187 35.5148 39.1166 35.5168V32.7236C39.1166 32.5276 38.9578 32.3667 38.7597 32.3667H29.2557C29.0598 32.3667 28.8988 32.5256 28.8988 32.7236V37.6252H28.3418V36.7938V31.4074H39.6736V34.77C39.6303 34.8319 39.5849 34.8938 39.5395 34.9557ZM38.4028 36.3812C38.3863 36.3998 38.3698 36.4204 38.3512 36.439H29.6106V33.0826H38.4028V36.3812ZM40.3379 26.9391H27.6776V23.8963H40.3379V26.9391ZM40.3379 27.6529V30.6957H27.6776V27.6529H40.3379ZM22.7822 31.2775C22.7822 31.1702 22.7306 31.0691 22.6461 31.0031C22.5615 30.9371 22.4521 30.9123 22.3469 30.9371C21.5589 31.1186 20.1313 31.0588 20.1169 31.0588C19.9209 31.0444 19.7559 31.2011 19.7456 31.3951C19.6115 33.8231 19.0483 35.5663 18.5614 36.6535C18.5614 36.6535 18.5614 36.6576 18.5594 36.6597C18.5264 36.734 18.4934 36.8041 18.4624 36.8701C18.4088 36.9815 18.3098 37.062 18.1901 37.0888C18.0704 37.1156 17.9446 37.0888 17.8497 37.0083C17.7094 36.8949 17.664 36.6968 17.7404 36.5297C19.0627 33.6045 18.9286 31.6179 18.7595 30.7576C21.5403 30.6751 23.3578 30.2976 24.2263 30.0665C23.7229 32.6988 23.9106 35.226 24.1479 36.8474C24.1479 36.8557 24.1479 36.8639 24.152 36.8701C24.2242 37.3611 24.3005 37.7696 24.3645 38.0687C24.3851 38.1718 24.3645 38.277 24.3047 38.3637C24.2448 38.4503 24.1561 38.506 24.0509 38.5246C23.857 38.5555 23.6713 38.4359 23.6198 38.2461C22.8689 35.457 22.7863 31.3187 22.7843 31.2775H22.7822ZM22.514 36.439H19.4217C19.8508 35.3497 20.2861 33.7984 20.4325 31.7788C20.8307 31.785 21.5032 31.7788 22.0787 31.7045C22.1076 32.5441 22.2067 34.5101 22.514 36.439ZM17.0864 36.2347C17.0555 36.3028 17.0349 36.3729 17.0183 36.4452C16.9957 36.441 16.9709 36.4369 16.9461 36.4369H13.1029C12.7027 33.0537 13.1194 31.1764 13.305 30.5513C15.0874 30.7246 16.6615 30.7844 18.0271 30.77C18.1715 31.4033 18.4088 33.3095 17.0864 36.2347ZM11.7867 39.521C11.4422 37.5488 10.9265 33.8788 11.3514 31.4755C11.37 31.3682 11.3391 31.2589 11.2669 31.1764C11.1988 31.1001 11.1018 31.0567 11.0007 31.0567C10.9946 31.0567 10.9863 31.0567 10.9801 31.0567C10.9657 31.0567 9.47416 31.1413 8.38493 31.0567C8.28591 31.0506 8.19101 31.0815 8.11881 31.1475C8.04661 31.2135 8.00328 31.3064 8.00122 31.4033C8.00122 31.4363 7.92902 34.4503 7.2008 36.4369H7.11622C6.78408 36.0594 6.46433 35.6695 6.16108 35.2672C6.38387 34.7453 6.88104 33.3177 6.79646 31.1929C6.88929 31.0299 7.67321 30.0356 12.581 30.4812C12.2983 31.5023 11.8094 34.2832 12.8553 39.3126C12.9069 39.5602 12.7852 39.8098 12.5583 39.9171C12.4035 39.9913 12.2261 39.9872 12.0735 39.9088C11.9208 39.8304 11.8156 39.6881 11.7867 39.5189V39.521ZM10.6356 36.439H7.95377C8.50664 34.7721 8.6593 32.6411 8.6985 31.7911C9.38546 31.8221 10.1261 31.8056 10.582 31.7891C10.4025 33.1836 10.4768 34.8814 10.6356 36.439ZM7.52056 18.4604C7.52674 18.4583 7.65465 18.413 7.89188 18.349C7.9414 18.3408 7.99297 18.3304 8.04454 18.3263C8.05279 18.3263 8.06105 18.3263 8.0693 18.3222C8.07342 18.3222 8.51077 18.2582 8.82434 18.6193C9.15028 18.9947 9.54843 20.086 8.55822 23.1536C8.51283 23.2918 8.46126 23.4383 8.39112 23.6178C7.94552 24.7483 7.29982 26.7823 7.97234 27.6921C8.1415 27.9231 8.47364 28.1892 9.08633 28.1397C9.38546 28.117 9.67839 28.016 9.95895 27.8427C10.9058 27.2547 12.1065 26.7638 12.6387 27.1557C12.8863 27.3373 13.2184 27.9231 12.7831 29.788C9.16059 29.4456 7.49374 29.854 6.72838 30.31C6.68506 29.9242 6.62317 29.5198 6.53653 29.099C6.52003 29.0247 4.93775 21.6043 6.76758 19.0855C6.98006 18.7925 7.22762 18.5862 7.51643 18.4604H7.52056ZM24.3686 29.2826C23.5042 29.5405 19.8549 30.4585 13.499 29.8561C13.7589 28.705 13.7754 27.8406 13.5505 27.2485C15.4856 27.5291 19.7373 27.9685 22.8297 27.0319C22.8358 27.0319 22.8441 27.0278 22.8503 27.0257C22.8565 27.0237 23.5352 26.7823 23.9705 27.1371C24.3624 27.4569 24.4986 28.1975 24.3666 29.2826H24.3686ZM17.9838 22.6234C17.9487 22.741 17.1112 25.4992 18.1323 26.8339C18.1447 26.8504 18.1612 26.8648 18.1736 26.8813C15.434 26.8752 12.9461 26.4337 12.68 26.3842C11.7083 26.0644 10.3612 26.7534 9.5835 27.2362C9.40196 27.3496 9.2163 27.4136 9.03269 27.428C8.72119 27.4528 8.60566 27.3476 8.54584 27.2671C8.22402 26.8318 8.42825 25.4682 9.05332 23.8756C9.12965 23.6838 9.18741 23.5229 9.23692 23.3702C10.0745 20.7771 10.1157 19.0215 9.36276 18.151C9.33388 18.118 9.305 18.0891 9.27612 18.0602C10.7697 17.8271 13.138 17.6724 16.09 18.2232C16.7337 18.3428 17.2927 18.6626 17.662 19.1206C18.3386 19.9581 18.448 21.136 17.9817 22.6234H17.9838ZM7.77223 37.1507H10.6686C10.683 37.1507 10.6996 37.1486 10.714 37.1465C10.8275 38.0996 10.9657 38.9702 11.0833 39.6448C11.108 39.783 11.1534 39.913 11.2194 40.0305C9.96927 39.1951 8.81402 38.2296 7.77223 37.1507ZM22.7286 43.5169C18.9142 43.5169 15.3391 42.4834 12.2633 40.6845C12.2839 40.6845 12.3025 40.6886 12.3231 40.6886C12.5067 40.6886 12.6924 40.6474 12.8656 40.5648C13.3896 40.3152 13.6723 39.7417 13.5547 39.1724C13.4041 38.4524 13.2885 37.7799 13.1978 37.1527H16.9461C16.9915 37.1527 17.0328 37.1445 17.074 37.128C17.1421 37.293 17.2515 37.4436 17.3979 37.5633C17.664 37.7799 18.0106 37.8603 18.3448 37.784C18.679 37.7077 18.9555 37.4869 19.104 37.1775C19.1081 37.1692 19.1122 37.161 19.1164 37.1527H22.6399C22.7245 37.5942 22.8193 38.0254 22.9287 38.4338C23.0607 38.9207 23.496 39.2446 23.9849 39.2446C24.0427 39.2446 24.1025 39.2404 24.1623 39.2301C24.4594 39.1827 24.7173 39.0176 24.8885 38.7701C25.0597 38.5225 25.1195 38.2213 25.0576 37.9263C25.0143 37.718 24.9648 37.4581 24.9132 37.1527H27.6301V37.9862C27.6301 38.1821 27.789 38.3431 27.987 38.3431H29.2578C29.4538 38.3431 29.6147 38.1842 29.6147 37.9862V37.1527H37.7014C33.7901 41.2126 28.3996 43.519 22.7306 43.519L22.7286 43.5169Z" fill="white"/>
<path d="M29.2619 2.24361C29.233 2.23123 29.2042 2.22091 29.1732 2.21472C27.1371 1.57315 24.9731 1.22864 22.7306 1.22864C10.8728 1.22864 1.22858 10.8729 1.22858 22.7286C1.22858 27.4982 2.79023 31.9067 5.42667 35.4776C5.43492 35.4941 5.44111 35.5127 5.45142 35.5271C6.13838 36.505 6.98832 37.3755 7.02339 37.4127C7.04195 37.4312 7.06052 37.4457 7.08115 37.4601C11.0049 41.6252 16.5666 44.2286 22.7265 44.2286C28.8865 44.2286 34.6792 41.617 38.7597 37.0496C38.768 37.0413 38.7762 37.0331 38.7824 37.0228C38.8649 36.9299 38.9474 36.8392 39.0279 36.7463C39.1434 36.6122 39.2548 36.4782 39.3683 36.342C39.7025 35.9335 40.0222 35.5127 40.3214 35.0877C42.8773 31.457 44.2286 27.1825 44.2286 22.7266C44.2286 13.1483 37.9325 5.01414 29.2619 2.24154V2.24361ZM22.7286 1.94035C24.8225 1.94035 26.8441 2.25392 28.7524 2.83154V7.9889H27.985C27.8323 7.9889 27.6941 8.08793 27.6466 8.23233L27.0484 10.0415C26.2583 10.2169 23.628 11.0132 23.0256 13.9694C22.9844 14.1757 23.036 14.3861 23.17 14.5491C23.3041 14.7141 23.5042 14.809 23.7167 14.809H34.5039C34.7163 14.809 34.9164 14.7141 35.0505 14.5491C35.1846 14.3861 35.2362 14.1736 35.1949 13.9694C34.5905 11.0132 31.9623 10.2169 31.1722 10.0415L30.574 8.23233C30.5265 8.08586 30.3883 7.9889 30.2356 7.9889H29.4682V3.06259C37.6333 5.8682 43.5189 13.6228 43.5189 22.7286C43.5189 26.642 42.4379 30.4069 40.3894 33.6952V31.4054H40.6968C40.8928 31.4054 41.0537 31.2465 41.0537 31.0485V23.5394C41.0537 23.3434 40.8949 23.1825 40.6968 23.1825H27.3228C27.1268 23.1825 26.9659 23.3413 26.9659 23.5394V31.0485C26.9659 31.2445 27.1247 31.4054 27.3228 31.4054H27.6301V36.4369H24.806C24.5832 34.7432 24.447 32.2058 25.0391 29.6312C25.0391 29.6251 25.0391 29.6189 25.0411 29.6147C25.0411 29.6106 25.0432 29.6086 25.0432 29.6044C25.2639 28.1109 25.0535 27.0918 24.4161 26.5781C23.6982 25.9984 22.7451 26.3058 22.6151 26.3512C21.7446 26.6152 20.7647 26.7596 19.7662 26.8298C19.2752 26.8421 18.9266 26.7019 18.6955 26.4007C18.0333 25.5363 18.4459 23.5332 18.6605 22.8359C19.335 20.6843 18.7904 19.3846 18.2149 18.6729C17.7383 18.0829 17.0287 17.6744 16.22 17.5238C11.8837 16.7152 8.80577 17.3547 7.71241 17.6579C7.56594 17.6868 7.42566 17.7322 7.29157 17.7858C7.28744 17.7858 7.28125 17.7899 7.27919 17.7899C7.27919 17.7899 7.27713 17.7899 7.27506 17.7899C6.85422 17.9632 6.49115 18.2541 6.19408 18.6646C4.17859 21.4393 5.7753 28.9298 5.84132 29.2434C6.36531 31.8097 5.95065 33.6829 5.65565 34.5741C3.31628 31.2115 1.94029 27.1289 1.94029 22.7286C1.94029 11.2669 11.2669 1.94035 22.7286 1.94035ZM27.3454 10.712H30.871C31.133 10.7532 33.9139 11.2649 34.5018 14.1014H29.1093L23.7229 14.1158C24.3088 11.2463 27.0566 10.7553 27.3454 10.712ZM27.8137 9.99821L28.2428 8.70268H29.9757L30.4048 9.99821H27.8158H27.8137ZM39.5395 34.9557C39.5003 35.0093 39.4611 35.063 39.4219 35.1166C39.358 35.2033 39.292 35.2878 39.2259 35.3745C39.1929 35.4178 39.1599 35.4632 39.1249 35.5065C39.1228 35.5106 39.1187 35.5148 39.1166 35.5168V32.7236C39.1166 32.5276 38.9578 32.3667 38.7597 32.3667H29.2557C29.0598 32.3667 28.8988 32.5256 28.8988 32.7236V37.6252H28.3418V36.7938V31.4074H39.6736V34.77C39.6303 34.8319 39.5849 34.8938 39.5395 34.9557ZM38.4028 36.3812C38.3863 36.3998 38.3698 36.4204 38.3512 36.439H29.6106V33.0826H38.4028V36.3812ZM40.3379 26.9391H27.6776V23.8963H40.3379V26.9391ZM40.3379 27.6529V30.6957H27.6776V27.6529H40.3379ZM22.7822 31.2775C22.7822 31.1702 22.7306 31.0691 22.6461 31.0031C22.5615 30.9371 22.4521 30.9123 22.3469 30.9371C21.5589 31.1186 20.1313 31.0588 20.1169 31.0588C19.9209 31.0444 19.7559 31.2011 19.7456 31.3951C19.6115 33.8231 19.0483 35.5663 18.5614 36.6535C18.5614 36.6535 18.5614 36.6576 18.5594 36.6597C18.5264 36.734 18.4934 36.8041 18.4624 36.8701C18.4088 36.9815 18.3098 37.062 18.1901 37.0888C18.0704 37.1156 17.9446 37.0888 17.8497 37.0083C17.7094 36.8949 17.664 36.6968 17.7404 36.5297C19.0627 33.6045 18.9286 31.6179 18.7595 30.7576C21.5403 30.6751 23.3578 30.2976 24.2263 30.0665C23.7229 32.6988 23.9106 35.226 24.1479 36.8474C24.1479 36.8557 24.1479 36.8639 24.152 36.8701C24.2242 37.3611 24.3005 37.7696 24.3645 38.0687C24.3851 38.1718 24.3645 38.277 24.3047 38.3637C24.2448 38.4503 24.1561 38.506 24.0509 38.5246C23.857 38.5555 23.6713 38.4359 23.6198 38.2461C22.8689 35.457 22.7863 31.3187 22.7843 31.2775H22.7822ZM22.514 36.439H19.4217C19.8508 35.3497 20.2861 33.7984 20.4325 31.7788C20.8307 31.785 21.5032 31.7788 22.0787 31.7045C22.1076 32.5441 22.2067 34.5101 22.514 36.439ZM17.0864 36.2347C17.0555 36.3028 17.0349 36.3729 17.0183 36.4452C16.9957 36.441 16.9709 36.4369 16.9461 36.4369H13.1029C12.7027 33.0537 13.1194 31.1764 13.305 30.5513C15.0874 30.7246 16.6615 30.7844 18.0271 30.77C18.1715 31.4033 18.4088 33.3095 17.0864 36.2347ZM11.7867 39.521C11.4422 37.5488 10.9265 33.8788 11.3514 31.4755C11.37 31.3682 11.3391 31.2589 11.2669 31.1764C11.1988 31.1001 11.1018 31.0567 11.0007 31.0567C10.9946 31.0567 10.9863 31.0567 10.9801 31.0567C10.9657 31.0567 9.47416 31.1413 8.38493 31.0567C8.28591 31.0506 8.19101 31.0815 8.11881 31.1475C8.04661 31.2135 8.00328 31.3064 8.00122 31.4033C8.00122 31.4363 7.92902 34.4503 7.2008 36.4369H7.11622C6.78408 36.0594 6.46433 35.6695 6.16108 35.2672C6.38387 34.7453 6.88104 33.3177 6.79646 31.1929C6.88929 31.0299 7.67321 30.0356 12.581 30.4812C12.2983 31.5023 11.8094 34.2832 12.8553 39.3126C12.9069 39.5602 12.7852 39.8098 12.5583 39.9171C12.4035 39.9913 12.2261 39.9872 12.0735 39.9088C11.9208 39.8304 11.8156 39.6881 11.7867 39.5189V39.521ZM10.6356 36.439H7.95377C8.50664 34.7721 8.6593 32.6411 8.6985 31.7911C9.38546 31.8221 10.1261 31.8056 10.582 31.7891C10.4025 33.1836 10.4768 34.8814 10.6356 36.439ZM7.52056 18.4604C7.52674 18.4583 7.65465 18.413 7.89188 18.349C7.9414 18.3408 7.99297 18.3304 8.04454 18.3263C8.05279 18.3263 8.06105 18.3263 8.0693 18.3222C8.07342 18.3222 8.51077 18.2582 8.82434 18.6193C9.15028 18.9947 9.54843 20.086 8.55822 23.1536C8.51283 23.2918 8.46126 23.4383 8.39112 23.6178C7.94552 24.7483 7.29982 26.7823 7.97234 27.6921C8.1415 27.9231 8.47364 28.1892 9.08633 28.1397C9.38546 28.117 9.67839 28.016 9.95895 27.8427C10.9058 27.2547 12.1065 26.7638 12.6387 27.1557C12.8863 27.3373 13.2184 27.9231 12.7831 29.788C9.16059 29.4456 7.49374 29.854 6.72838 30.31C6.68506 29.9242 6.62317 29.5198 6.53653 29.099C6.52003 29.0247 4.93775 21.6043 6.76758 19.0855C6.98006 18.7925 7.22762 18.5862 7.51643 18.4604H7.52056ZM24.3686 29.2826C23.5042 29.5405 19.8549 30.4585 13.499 29.8561C13.7589 28.705 13.7754 27.8406 13.5505 27.2485C15.4856 27.5291 19.7373 27.9685 22.8297 27.0319C22.8358 27.0319 22.8441 27.0278 22.8503 27.0257C22.8565 27.0237 23.5352 26.7823 23.9705 27.1371C24.3624 27.4569 24.4986 28.1975 24.3666 29.2826H24.3686ZM17.9838 22.6234C17.9487 22.741 17.1112 25.4992 18.1323 26.8339C18.1447 26.8504 18.1612 26.8648 18.1736 26.8813C15.434 26.8752 12.9461 26.4337 12.68 26.3842C11.7083 26.0644 10.3612 26.7534 9.5835 27.2362C9.40196 27.3496 9.2163 27.4136 9.03269 27.428C8.72119 27.4528 8.60566 27.3476 8.54584 27.2671C8.22402 26.8318 8.42825 25.4682 9.05332 23.8756C9.12965 23.6838 9.18741 23.5229 9.23692 23.3702C10.0745 20.7771 10.1157 19.0215 9.36276 18.151C9.33388 18.118 9.305 18.0891 9.27612 18.0602C10.7697 17.8271 13.138 17.6724 16.09 18.2232C16.7337 18.3428 17.2927 18.6626 17.662 19.1206C18.3386 19.9581 18.448 21.136 17.9817 22.6234H17.9838ZM7.77223 37.1507H10.6686C10.683 37.1507 10.6996 37.1486 10.714 37.1465C10.8275 38.0996 10.9657 38.9702 11.0833 39.6448C11.108 39.783 11.1534 39.913 11.2194 40.0305C9.96927 39.1951 8.81402 38.2296 7.77223 37.1507ZM22.7286 43.5169C18.9142 43.5169 15.3391 42.4834 12.2633 40.6845C12.2839 40.6845 12.3025 40.6886 12.3231 40.6886C12.5067 40.6886 12.6924 40.6474 12.8656 40.5648C13.3896 40.3152 13.6723 39.7417 13.5547 39.1724C13.4041 38.4524 13.2885 37.7799 13.1978 37.1527H16.9461C16.9915 37.1527 17.0328 37.1445 17.074 37.128C17.1421 37.293 17.2515 37.4436 17.3979 37.5633C17.664 37.7799 18.0106 37.8603 18.3448 37.784C18.679 37.7077 18.9555 37.4869 19.104 37.1775C19.1081 37.1692 19.1122 37.161 19.1164 37.1527H22.6399C22.7245 37.5942 22.8193 38.0254 22.9287 38.4338C23.0607 38.9207 23.496 39.2446 23.9849 39.2446C24.0427 39.2446 24.1025 39.2404 24.1623 39.2301C24.4594 39.1827 24.7173 39.0176 24.8885 38.7701C25.0597 38.5225 25.1195 38.2213 25.0576 37.9263C25.0143 37.718 24.9648 37.4581 24.9132 37.1527H27.6301V37.9862C27.6301 38.1821 27.789 38.3431 27.987 38.3431H29.2578C29.4538 38.3431 29.6147 38.1842 29.6147 37.9862V37.1527H37.7014C33.7901 41.2126 28.3996 43.519 22.7306 43.519L22.7286 43.5169Z" stroke="white" stroke-width="0.4" mask="url(#path-1-outside-1_751_2606)"/>
<path d="M35.0811 28.6501C35.3488 28.6503 35.5498 28.9039 35.5498 29.2C35.5498 29.496 35.3488 29.7496 35.0811 29.7498H32.9189C32.651 29.7496 32.4502 29.4931 32.4502 29.2C32.4502 28.9068 32.651 28.6503 32.9189 28.6501H35.0811Z" fill="white" stroke="white" stroke-width="0.1"/>
<path d="M35.0811 24.9502C35.3488 24.9503 35.5498 25.2039 35.5498 25.5C35.5498 25.7961 35.3488 26.0497 35.0811 26.0498H32.9189C32.6512 26.0497 32.4502 25.7961 32.4502 25.5C32.4502 25.2039 32.6512 24.9503 32.9189 24.9502H35.0811Z" fill="white" stroke="white" stroke-width="0.1"/>
<path d="M24.8643 7.17883L24.9522 7.19055C25.0359 7.21401 25.1087 7.27004 25.1631 7.34485C25.2358 7.44467 25.2784 7.58059 25.2784 7.72864C25.2784 7.87683 25.2351 8.01267 25.1622 8.11243C25.0893 8.21208 24.9841 8.27844 24.8643 8.27844H18.5928C18.4721 8.27844 18.3667 8.21225 18.294 8.11243C18.2214 8.0126 18.1788 7.87669 18.1788 7.72864C18.1788 7.58044 18.2221 7.4446 18.295 7.34485C18.3678 7.2452 18.4731 7.17883 18.5928 7.17883H24.8643Z" fill="white" stroke="white" stroke-width="0.1"/>
<path d="M41.2286 17.129V17.3282H34.2286V17.129H41.2286Z" fill="white" stroke="white" stroke-width="0.2"/>
<path d="M20.8604 14.1788C20.9817 14.179 21.0876 14.2451 21.1612 14.3448C21.2348 14.4447 21.2784 14.5808 21.2784 14.7286C21.2784 14.8765 21.2348 15.0125 21.1612 15.1124C21.0876 15.2121 20.9817 15.2783 20.8604 15.2784H13.5967C13.4754 15.2783 13.3695 15.2121 13.296 15.1124C13.2223 15.0125 13.1788 14.8765 13.1788 14.7286C13.1788 14.5808 13.2223 14.4447 13.296 14.3448C13.3695 14.2451 13.4754 14.179 13.5967 14.1788H20.8604Z" fill="white" stroke="white" stroke-width="0.1"/>
<path d="M30.2286 19.129V19.3282H21.2286V19.129H30.2286Z" fill="white" stroke="white" stroke-width="0.2"/>
<path d="M17.8301 10.1788C18.0882 10.1788 18.2784 10.4355 18.2784 10.7286C18.2784 11.0217 18.0882 11.2784 17.8301 11.2784H9.62701C9.36898 11.2784 9.17877 11.0217 9.17877 10.7286C9.17877 10.4355 9.36898 10.1788 9.62701 10.1788H17.8301Z" fill="white" stroke="white" stroke-width="0.1"/>
<path d="M66.8273 27.1449C66.8273 28.6915 66.5138 30.0918 65.8868 31.3458C65.2598 32.5789 64.2984 33.5612 63.0026 34.2926C61.7277 35.0032 60.0975 35.3585 58.112 35.3585C55.3324 35.3585 53.211 34.6061 51.748 33.1014C50.306 31.5757 49.5849 29.5693 49.5849 27.0822V12.6613H52.4064V27.1762C52.4064 28.9945 52.8871 30.4053 53.8485 31.4085C54.8308 32.4117 56.3042 32.9133 58.2688 32.9133C59.6273 32.9133 60.7245 32.6729 61.5605 32.1922C62.4174 31.6906 63.0444 31.0114 63.4415 30.1545C63.8386 29.2767 64.0372 28.2735 64.0372 27.1449V12.6613H66.8273V27.1449ZM90.479 35.045H87.1873L75.2116 16.4546H75.0862C75.1071 16.8308 75.128 17.2488 75.1489 17.7086C75.1907 18.1684 75.2221 18.67 75.243 19.2134C75.2639 19.7359 75.2848 20.2793 75.3057 20.8436C75.3266 21.4079 75.337 21.9722 75.337 22.5365V35.045H72.735V12.6613H75.9954L87.9397 31.189H88.0651C88.0442 30.9382 88.0233 30.5934 88.0024 30.1545C87.9815 29.6947 87.9606 29.1931 87.9397 28.6497C87.9188 28.0854 87.8979 27.5106 87.877 26.9255C87.8561 26.3403 87.8456 25.7969 87.8456 25.2953V12.6613H90.479V35.045ZM102.855 35.045H94.7666V33.4149L97.3999 32.8192V14.9185L94.7666 14.2915V12.6613H102.855V14.2915L100.221 14.9185V32.8192L102.855 33.4149V35.045ZM124.921 35.045H121.629L109.654 16.4546H109.528C109.549 16.8308 109.57 17.2488 109.591 17.7086C109.633 18.1684 109.664 18.67 109.685 19.2134C109.706 19.7359 109.727 20.2793 109.748 20.8436C109.768 21.4079 109.779 21.9722 109.779 22.5365V35.045H107.177V12.6613H110.437L122.382 31.189H122.507C122.486 30.9382 122.465 30.5934 122.444 30.1545C122.423 29.6947 122.402 29.1931 122.382 28.6497C122.361 28.0854 122.34 27.5106 122.319 26.9255C122.298 26.3403 122.287 25.7969 122.287 25.2953V12.6613H124.921V35.045ZM143.504 35.045H130.995V12.6613H143.504V15.1379H133.817V22.1289H142.94V24.5742H133.817V32.5684H143.504V35.045ZM161.112 29.0572C161.112 30.3948 160.788 31.5339 160.14 32.4744C159.492 33.394 158.562 34.1046 157.35 34.6061C156.159 35.1077 154.748 35.3585 153.118 35.3585C152.282 35.3585 151.477 35.3167 150.704 35.2331C149.951 35.1495 149.262 35.0346 148.635 34.8883C148.008 34.7211 147.454 34.5225 146.973 34.2926V31.5966C147.726 31.931 148.656 32.234 149.763 32.5057C150.892 32.7774 152.052 32.9133 153.243 32.9133C154.351 32.9133 155.281 32.767 156.033 32.4744C156.786 32.1818 157.35 31.7638 157.726 31.2204C158.102 30.677 158.291 30.0395 158.291 29.308C158.291 28.5765 158.134 27.96 157.82 27.4584C157.507 26.9568 156.963 26.497 156.19 26.079C155.438 25.6401 154.382 25.1803 153.024 24.6996C152.062 24.3443 151.216 23.9681 150.484 23.571C149.774 23.153 149.178 22.6828 148.697 22.1603C148.217 21.6378 147.851 21.0421 147.6 20.3733C147.37 19.7046 147.255 18.9313 147.255 18.0535C147.255 16.8622 147.558 15.8485 148.165 15.0125C148.771 14.1556 149.607 13.4973 150.673 13.0375C151.759 12.5777 153.003 12.3478 154.403 12.3478C155.636 12.3478 156.765 12.4628 157.789 12.6926C158.813 12.9225 159.743 13.2256 160.579 13.6018L159.701 16.0157C158.928 15.6813 158.082 15.3992 157.162 15.1693C156.263 14.9394 155.323 14.8244 154.34 14.8244C153.4 14.8244 152.616 14.9603 151.989 15.232C151.362 15.5037 150.892 15.8903 150.578 16.3919C150.265 16.8726 150.108 17.4369 150.108 18.0848C150.108 18.8372 150.265 19.4642 150.578 19.9658C150.892 20.4674 151.404 20.9167 152.115 21.3138C152.825 21.7109 153.787 22.1394 154.999 22.5992C156.315 23.0799 157.423 23.6024 158.322 24.1667C159.241 24.7101 159.931 25.3684 160.391 26.1417C160.872 26.915 161.112 27.8868 161.112 29.0572ZM172.706 35.045H169.885V15.1379H162.894V12.6613H179.666V15.1379H172.706V35.045Z" fill="white"/>
</svg>
