<svg width="20" height="20" viewBox="0 0 20 20" fill="none" xmlns="http://www.w3.org/2000/svg">
<path d="M10 20C8.02219 20 6.08879 19.4135 4.4443 18.3147C2.79981 17.2159 1.51809 15.6541 0.761209 13.8268C0.00433294 11.9996 -0.1937 9.98891 0.192152 8.0491C0.578004 6.10929 1.53041 4.32746 2.92894 2.92894C4.32746 1.53041 6.10929 0.578004 8.0491 0.192152C9.98891 -0.1937 11.9996 0.00433294 13.8268 0.761209C15.6541 1.51809 17.2159 2.79981 18.3147 4.4443C19.4135 6.08879 20 8.02219 20 10C20 12.6522 18.9464 15.1957 17.0711 17.0711C15.1957 18.9464 12.6522 20 10 20ZM10 1.33334C8.2859 1.33334 6.61029 1.84163 5.18506 2.79393C3.75984 3.74624 2.64901 5.09979 1.99305 6.68341C1.33709 8.26704 1.16546 10.0096 1.49987 11.6908C1.83427 13.372 2.65969 14.9162 3.87174 16.1283C5.0838 17.3403 6.62805 18.1657 8.30922 18.5001C9.99039 18.8345 11.733 18.6629 13.3166 18.007C14.9002 17.351 16.2538 16.2402 17.2061 14.8149C18.1584 13.3897 18.6667 11.7141 18.6667 10C18.6667 7.70146 17.7536 5.49706 16.1283 3.87174C14.5029 2.24643 12.2985 1.33334 10 1.33334Z" fill="#6A6F74"/>
<path d="M12.8267 13.7734L9.52669 10.4734C9.4649 10.4111 9.41602 10.3372 9.38284 10.256C9.34966 10.1747 9.33285 10.0878 9.33335 10V4.66669H10.6667V9.72669L13.7734 12.8267L12.8267 13.7734Z" fill="#6A6F74"/>
</svg>
