<svg width="64" height="33" viewBox="0 0 64 33" fill="none" xmlns="http://www.w3.org/2000/svg">
<rect width="63.9953" height="33" rx="5" fill="#6C1CD3"/>
<path d="M14.2834 9.63125L10.2615 9.59422L10.2615 12.2625H16.9269L10 21.1414V23.3994H14.2834V26H16.8534V23.3994H21.2225C21.2592 23.2953 21.2721 23.0148 21.0396 22.7578C20.6541 22.3295 20.3475 21.8818 20.066 21.3188C19.9375 21.0679 19.8399 20.7675 19.8032 20.743C18.9428 20.7036 13.9931 20.7138 13.9958 20.6824L20.9288 11.7491V9.63125H16.8534V7H14.2834V9.63125Z" fill="white"/>
<path d="M32.8429 8.38907C32.7817 8.41355 32.7633 9.76589 32.7633 14.8876C32.7633 21.8084 32.7572 21.6921 33.0632 22.2857C33.3385 22.8181 34.0116 23.2954 34.7643 23.4912C35.1804 23.6013 36.4042 23.6136 36.8754 23.5156C37.4812 23.3871 37.5975 23.2036 37.3588 22.7324C37.2058 22.4387 37.0039 21.7962 36.9549 21.4412C36.8876 21.019 36.802 20.9517 36.288 20.964C36.0432 20.9701 35.8107 20.9517 35.7678 20.9272C35.5169 20.7681 35.5169 20.7253 35.5169 14.5266C35.5169 10.543 35.4986 8.54205 35.4557 8.4625C35.3946 8.35236 35.315 8.34624 34.1524 8.35236C33.4731 8.35236 32.8796 8.37072 32.8429 8.38907Z" fill="white"/>
<path d="M38.4541 8.40743C38.3745 8.45639 38.3623 9.23964 38.3623 14.8448C38.3623 20.8844 38.3684 21.2516 38.4786 21.6738C38.6866 22.506 39.1578 23.0139 40.0512 23.3871C40.3939 23.5279 40.5468 23.5524 41.2383 23.5707C42.1623 23.5952 42.6335 23.5279 43.1047 23.2892C43.5697 23.0628 43.582 22.9037 43.1842 22.3224C43.0251 22.0899 42.7803 21.6921 42.6457 21.4412L42.401 20.9823L41.9543 20.9762C41.3974 20.964 41.3423 20.9395 41.2383 20.6764C41.1588 20.4989 41.1465 19.5871 41.1465 14.5266C41.1465 10.543 41.1282 8.54205 41.0853 8.4625C41.0241 8.35236 40.9446 8.34624 39.782 8.34624C39.1027 8.34624 38.503 8.37684 38.4541 8.40743Z" fill="white"/>
<path d="M25.1449 12.2319C25.1144 12.2441 24.8757 12.2992 24.6248 12.3542C23.0522 12.7153 21.6631 13.9207 21.0757 15.4505C20.7514 16.295 20.6351 16.9497 20.629 17.9227C20.6229 19.2873 20.8982 20.2908 21.5285 21.2454C22.2383 22.3162 23.2786 23.0444 24.6248 23.4116C25.0838 23.5339 25.2857 23.5523 26.3382 23.5523C27.3784 23.5523 27.5926 23.5339 28.0271 23.4177C29.104 23.1178 30.0219 22.6222 30.7623 21.9185C31.2335 21.4779 31.2274 21.3555 30.7501 20.9884C30.5543 20.8354 30.1994 20.505 29.9668 20.248C29.6731 19.9359 29.4957 19.789 29.4039 19.789C29.3182 19.789 29.1224 19.9114 28.9327 20.095C28.278 20.6885 27.4519 20.97 26.3688 20.9639C25.3775 20.9578 24.6554 20.7008 24.1965 20.1745C23.9639 19.9114 23.6702 19.3117 23.609 18.9752L23.5723 18.7488H27.3846C29.4834 18.7488 31.2396 18.7243 31.2825 18.6937C31.4844 18.5652 31.5334 17.6779 31.3865 16.7111C31.0377 14.398 29.6548 12.8438 27.4825 12.3236C27.097 12.2319 26.7788 12.2013 26.0934 12.2074C25.6039 12.2074 25.1817 12.2196 25.1449 12.2319ZM26.7788 14.5939C27.2255 14.6856 27.7762 14.9916 28.0332 15.2853C28.2718 15.5546 28.5166 16.038 28.5778 16.3501L28.6206 16.5459H26.124H23.6335L23.6763 16.3501C23.8599 15.524 24.5697 14.8325 25.4509 14.6122C25.8425 14.5143 26.3688 14.5082 26.7788 14.5939Z" fill="white"/>
<path d="M47.388 12.287C45.2157 12.7704 43.7471 14.3002 43.2882 16.5582C43.0128 17.8921 43.1658 19.4464 43.6859 20.5601C44.3958 22.1021 45.6869 23.0995 47.4492 23.4606C48.0061 23.5768 48.2264 23.5891 49.1014 23.5646C49.8418 23.5401 50.2396 23.4973 50.5822 23.4055C51.6286 23.1301 52.5465 22.6284 53.2502 21.9553C53.7887 21.4351 53.7887 21.4107 53.2074 20.9272C52.9381 20.707 52.5771 20.3582 52.4057 20.1562C52.008 19.6973 51.904 19.6912 51.4573 20.095C50.7903 20.7008 49.9948 20.9701 48.8872 20.964C47.333 20.9578 46.4273 20.2908 46.1336 18.9446L46.0908 18.7858H53.8437C54.1069 18.5961 54.009 16.5888 53.6908 15.6586C53.6296 15.4751 53.4644 15.1079 53.3297 14.8509C52.6138 13.4802 51.4695 12.6297 49.8785 12.2931C49.3706 12.183 47.8714 12.183 47.388 12.287ZM49.2972 14.5939C49.7133 14.6857 50.1417 14.8999 50.4476 15.1752C50.7046 15.4139 51.1207 16.1665 51.1207 16.3991V16.5459H46.152L46.1948 16.3746C46.513 15.0651 47.8592 14.2879 49.2972 14.5939Z" fill="white"/>
</svg>
